<?xml version="1.0" encoding="us-ascii" standalone="no"?><svg xmlns="http://www.w3.org/2000/svg" xmlns:xlink="http://www.w3.org/1999/xlink" contentStyleType="text/css" height="822px" preserveAspectRatio="none" style="width:886px;height:822px;background:#FFFFFF;" version="1.1" viewBox="0 0 886 822" width="886px" zoomAndPan="magnify"><defs/><g><!--cluster GameLogic--><g id="cluster_GameLogic"><path d="M8.5,146 L98.5,146 A3.75,3.75 0 0 1 101,148.5 L108,168.2969 L876.5,168.2969 A2.5,2.5 0 0 1 879,170.7969 L879,812.5 A2.5,2.5 0 0 1 876.5,815 L8.5,815 A2.5,2.5 0 0 1 6,812.5 L6,148.5 A2.5,2.5 0 0 1 8.5,146 " fill="none" style="stroke:#000000;stroke-width:1.5;"/><line style="stroke:#000000;stroke-width:1.5;" x1="6" x2="108" y1="168.2969" y2="168.2969"/><text fill="#000000" font-family="sans-serif" font-size="14" font-weight="bold" lengthAdjust="spacing" textLength="89" x="10" y="160.9951">GameLogic</text></g><!--cluster Utils--><g id="cluster_Utils"><path d="M495.5,6 L534.5,6 A3.75,3.75 0 0 1 537,8.5 L544,28.2969 L744.5,28.2969 A2.5,2.5 0 0 1 747,30.7969 L747,110.5 A2.5,2.5 0 0 1 744.5,113 L495.5,113 A2.5,2.5 0 0 1 493,110.5 L493,8.5 A2.5,2.5 0 0 1 495.5,6 " fill="none" style="stroke:#000000;stroke-width:1.5;"/><line style="stroke:#000000;stroke-width:1.5;" x1="493" x2="544" y1="28.2969" y2="28.2969"/><text fill="#000000" font-family="sans-serif" font-size="14" font-weight="bold" lengthAdjust="spacing" textLength="38" x="497" y="20.9951">Utils</text></g><!--class EnumAction--><g id="elem_EnumAction"><rect codeLine="2" fill="#F1F1F1" height="48" id="EnumAction" rx="2.5" ry="2.5" style="stroke:#181818;stroke-width:0.5;" width="119" x="712.5" y="747"/><ellipse cx="727.5" cy="763" fill="#EB937F" rx="11" ry="11" style="stroke:#181818;stroke-width:1.0;"/><path d="M726.2969,763.875 L727.75,763.875 L727.75,763.9844 C727.75,764.3906 727.7813,764.5469 727.8594,764.7031 C728.0156,764.9531 728.2969,765.1094 728.5938,765.1094 C728.8438,765.1094 729.1094,764.9688 729.2656,764.75 C729.3906,764.5938 729.4219,764.4375 729.4219,763.9844 L729.4219,762.0625 C729.4219,761.9063 729.4219,761.8594 729.4063,761.7031 C729.3438,761.2344 729.0313,760.9219 728.5781,760.9219 C728.3281,760.9219 728.0625,761.0625 727.8906,761.2813 C727.7813,761.4531 727.75,761.6094 727.75,762.0625 L727.75,762.1875 L726.2969,762.1875 L726.2969,759.7813 L730.2813,759.7813 L730.2813,760.6406 C730.2813,761.0469 730.3125,761.2188 730.3906,761.375 C730.5625,761.625 730.8438,761.7813 731.125,761.7813 C731.3906,761.7813 731.6563,761.6406 731.8281,761.4219 C731.9375,761.25 731.9688,761.1094 731.9688,760.6406 L731.9688,758.0938 L724.3438,758.0938 C723.9063,758.0938 723.7813,758.1094 723.625,758.2031 C723.375,758.3594 723.2188,758.6563 723.2188,758.9375 C723.2188,759.2188 723.3594,759.4688 723.5781,759.6406 C723.7344,759.75 723.9219,759.7813 724.3438,759.7813 L724.5938,759.7813 L724.5938,766.2969 L724.3438,766.2969 C723.9375,766.2969 723.7813,766.3125 723.625,766.4219 C723.375,766.5938 723.2188,766.8594 723.2188,767.1563 C723.2188,767.4219 723.3594,767.6719 723.5781,767.8281 C723.7188,767.9531 723.9531,768 724.3438,768 L732.3438,768 L732.3438,765.4219 C732.3438,764.9844 732.3125,764.8438 732.2344,764.6875 C732.0625,764.4375 731.7813,764.2813 731.5,764.2813 C731.2344,764.2813 730.9688,764.3906 730.7969,764.6406 C730.6875,764.7969 730.6563,764.9375 730.6563,765.4219 L730.6563,766.2969 L726.2969,766.2969 L726.2969,763.875 Z " fill="#000000"/><text fill="#000000" font-family="sans-serif" font-size="14" lengthAdjust="spacing" textLength="87" x="741.5" y="767.8467">EnumAction</text><line style="stroke:#181818;stroke-width:0.5;" x1="713.5" x2="830.5" y1="779" y2="779"/><line style="stroke:#181818;stroke-width:0.5;" x1="713.5" x2="830.5" y1="787" y2="787"/></g><!--class Board--><g id="elem_Board"><rect codeLine="3" fill="#F1F1F1" height="48" id="Board" rx="2.5" ry="2.5" style="stroke:#181818;stroke-width:0.5;" width="74" x="22" y="392"/><ellipse cx="37" cy="408" fill="#ADD1B2" rx="11" ry="11" style="stroke:#181818;stroke-width:1.0;"/><path d="M39.3438,403.6719 C38.4063,403.2344 37.8125,403.0938 36.9375,403.0938 C34.3125,403.0938 32.3125,405.1719 32.3125,407.8906 L32.3125,409.0156 C32.3125,411.5938 34.4219,413.4844 37.3125,413.4844 C38.5313,413.4844 39.6875,413.1875 40.4375,412.6406 C41.0156,412.2344 41.3438,411.7813 41.3438,411.3906 C41.3438,410.9375 40.9531,410.5469 40.4844,410.5469 C40.2656,410.5469 40.0625,410.625 39.875,410.8125 C39.4219,411.2969 39.4219,411.2969 39.2344,411.3906 C38.8125,411.6563 38.125,411.7813 37.3594,411.7813 C35.3125,411.7813 34.0156,410.6875 34.0156,408.9844 L34.0156,407.8906 C34.0156,406.1094 35.2656,404.7969 37,404.7969 C37.5781,404.7969 38.1875,404.9531 38.6563,405.2031 C39.1406,405.4844 39.3125,405.7031 39.4063,406.1094 C39.4688,406.5156 39.5,406.6406 39.6406,406.7656 C39.7813,406.9063 40.0156,407.0156 40.2344,407.0156 C40.5,407.0156 40.7656,406.875 40.9375,406.6563 C41.0469,406.5 41.0781,406.3125 41.0781,405.8906 L41.0781,404.4688 C41.0781,404.0313 41.0625,403.9063 40.9688,403.75 C40.8125,403.4844 40.5313,403.3438 40.2344,403.3438 C39.9375,403.3438 39.7344,403.4375 39.5156,403.75 L39.3438,403.6719 Z " fill="#000000"/><text fill="#000000" font-family="sans-serif" font-size="14" lengthAdjust="spacing" textLength="42" x="51" y="412.8467">Board</text><line style="stroke:#181818;stroke-width:0.5;" x1="23" x2="95" y1="424" y2="424"/><line style="stroke:#181818;stroke-width:0.5;" x1="23" x2="95" y1="432" y2="432"/></g><!--class Bag--><g id="elem_Bag"><rect codeLine="4" fill="#F1F1F1" height="48" id="Bag" rx="2.5" ry="2.5" style="stroke:#181818;stroke-width:0.5;" width="59" x="31.5" y="556"/><ellipse cx="46.5" cy="572" fill="#ADD1B2" rx="11" ry="11" style="stroke:#181818;stroke-width:1.0;"/><path d="M48.8438,567.6719 C47.9063,567.2344 47.3125,567.0938 46.4375,567.0938 C43.8125,567.0938 41.8125,569.1719 41.8125,571.8906 L41.8125,573.0156 C41.8125,575.5938 43.9219,577.4844 46.8125,577.4844 C48.0313,577.4844 49.1875,577.1875 49.9375,576.6406 C50.5156,576.2344 50.8438,575.7813 50.8438,575.3906 C50.8438,574.9375 50.4531,574.5469 49.9844,574.5469 C49.7656,574.5469 49.5625,574.625 49.375,574.8125 C48.9219,575.2969 48.9219,575.2969 48.7344,575.3906 C48.3125,575.6563 47.625,575.7813 46.8594,575.7813 C44.8125,575.7813 43.5156,574.6875 43.5156,572.9844 L43.5156,571.8906 C43.5156,570.1094 44.7656,568.7969 46.5,568.7969 C47.0781,568.7969 47.6875,568.9531 48.1563,569.2031 C48.6406,569.4844 48.8125,569.7031 48.9063,570.1094 C48.9688,570.5156 49,570.6406 49.1406,570.7656 C49.2813,570.9063 49.5156,571.0156 49.7344,571.0156 C50,571.0156 50.2656,570.875 50.4375,570.6563 C50.5469,570.5 50.5781,570.3125 50.5781,569.8906 L50.5781,568.4688 C50.5781,568.0313 50.5625,567.9063 50.4688,567.75 C50.3125,567.4844 50.0313,567.3438 49.7344,567.3438 C49.4375,567.3438 49.2344,567.4375 49.0156,567.75 L48.8438,567.6719 Z " fill="#000000"/><text fill="#000000" font-family="sans-serif" font-size="14" lengthAdjust="spacing" textLength="27" x="60.5" y="576.8467">Bag</text><line style="stroke:#181818;stroke-width:0.5;" x1="32.5" x2="89.5" y1="588" y2="588"/><line style="stroke:#181818;stroke-width:0.5;" x1="32.5" x2="89.5" y1="596" y2="596"/></g><!--class Card--><g id="elem_Card"><rect codeLine="5" fill="#F1F1F1" height="48" id="Card" rx="2.5" ry="2.5" style="stroke:#181818;stroke-width:0.5;" width="65" x="138.5" y="634"/><ellipse cx="153.5" cy="650" fill="#ADD1B2" rx="11" ry="11" style="stroke:#181818;stroke-width:1.0;"/><path d="M155.8438,645.6719 C154.9063,645.2344 154.3125,645.0938 153.4375,645.0938 C150.8125,645.0938 148.8125,647.1719 148.8125,649.8906 L148.8125,651.0156 C148.8125,653.5938 150.9219,655.4844 153.8125,655.4844 C155.0313,655.4844 156.1875,655.1875 156.9375,654.6406 C157.5156,654.2344 157.8438,653.7813 157.8438,653.3906 C157.8438,652.9375 157.4531,652.5469 156.9844,652.5469 C156.7656,652.5469 156.5625,652.625 156.375,652.8125 C155.9219,653.2969 155.9219,653.2969 155.7344,653.3906 C155.3125,653.6563 154.625,653.7813 153.8594,653.7813 C151.8125,653.7813 150.5156,652.6875 150.5156,650.9844 L150.5156,649.8906 C150.5156,648.1094 151.7656,646.7969 153.5,646.7969 C154.0781,646.7969 154.6875,646.9531 155.1563,647.2031 C155.6406,647.4844 155.8125,647.7031 155.9063,648.1094 C155.9688,648.5156 156,648.6406 156.1406,648.7656 C156.2813,648.9063 156.5156,649.0156 156.7344,649.0156 C157,649.0156 157.2656,648.875 157.4375,648.6563 C157.5469,648.5 157.5781,648.3125 157.5781,647.8906 L157.5781,646.4688 C157.5781,646.0313 157.5625,645.9063 157.4688,645.75 C157.3125,645.4844 157.0313,645.3438 156.7344,645.3438 C156.4375,645.3438 156.2344,645.4375 156.0156,645.75 L155.8438,645.6719 Z " fill="#000000"/><text fill="#000000" font-family="sans-serif" font-size="14" lengthAdjust="spacing" textLength="33" x="167.5" y="654.8467">Card</text><line style="stroke:#181818;stroke-width:0.5;" x1="139.5" x2="202.5" y1="666" y2="666"/><line style="stroke:#181818;stroke-width:0.5;" x1="139.5" x2="202.5" y1="674" y2="674"/></g><!--class DrawPile--><g id="elem_DrawPile"><rect codeLine="6" fill="#F1F1F1" height="48" id="DrawPile" rx="2.5" ry="2.5" style="stroke:#181818;stroke-width:0.5;" width="94" x="108" y="392"/><ellipse cx="123" cy="408" fill="#ADD1B2" rx="11" ry="11" style="stroke:#181818;stroke-width:1.0;"/><path d="M125.3438,403.6719 C124.4063,403.2344 123.8125,403.0938 122.9375,403.0938 C120.3125,403.0938 118.3125,405.1719 118.3125,407.8906 L118.3125,409.0156 C118.3125,411.5938 120.4219,413.4844 123.3125,413.4844 C124.5313,413.4844 125.6875,413.1875 126.4375,412.6406 C127.0156,412.2344 127.3438,411.7813 127.3438,411.3906 C127.3438,410.9375 126.9531,410.5469 126.4844,410.5469 C126.2656,410.5469 126.0625,410.625 125.875,410.8125 C125.4219,411.2969 125.4219,411.2969 125.2344,411.3906 C124.8125,411.6563 124.125,411.7813 123.3594,411.7813 C121.3125,411.7813 120.0156,410.6875 120.0156,408.9844 L120.0156,407.8906 C120.0156,406.1094 121.2656,404.7969 123,404.7969 C123.5781,404.7969 124.1875,404.9531 124.6563,405.2031 C125.1406,405.4844 125.3125,405.7031 125.4063,406.1094 C125.4688,406.5156 125.5,406.6406 125.6406,406.7656 C125.7813,406.9063 126.0156,407.0156 126.2344,407.0156 C126.5,407.0156 126.7656,406.875 126.9375,406.6563 C127.0469,406.5 127.0781,406.3125 127.0781,405.8906 L127.0781,404.4688 C127.0781,404.0313 127.0625,403.9063 126.9688,403.75 C126.8125,403.4844 126.5313,403.3438 126.2344,403.3438 C125.9375,403.3438 125.7344,403.4375 125.5156,403.75 L125.3438,403.6719 Z " fill="#000000"/><text fill="#000000" font-family="sans-serif" font-size="14" lengthAdjust="spacing" textLength="62" x="137" y="412.8467">DrawPile</text><line style="stroke:#181818;stroke-width:0.5;" x1="109" x2="201" y1="424" y2="424"/><line style="stroke:#181818;stroke-width:0.5;" x1="109" x2="201" y1="432" y2="432"/></g><!--class GameFactory--><g id="elem_GameFactory"><rect codeLine="7" fill="#F1F1F1" height="56.2656" id="GameFactory" rx="2.5" ry="2.5" style="stroke:#181818;stroke-width:0.5;" width="128" x="517" y="181"/><ellipse cx="532" cy="201.1328" fill="#ADD1B2" rx="11" ry="11" style="stroke:#181818;stroke-width:1.0;"/><path d="M534.3438,196.8047 C533.4063,196.3672 532.8125,196.2266 531.9375,196.2266 C529.3125,196.2266 527.3125,198.3047 527.3125,201.0234 L527.3125,202.1484 C527.3125,204.7266 529.4219,206.6172 532.3125,206.6172 C533.5313,206.6172 534.6875,206.3203 535.4375,205.7734 C536.0156,205.3672 536.3438,204.9141 536.3438,204.5234 C536.3438,204.0703 535.9531,203.6797 535.4844,203.6797 C535.2656,203.6797 535.0625,203.7578 534.875,203.9453 C534.4219,204.4297 534.4219,204.4297 534.2344,204.5234 C533.8125,204.7891 533.125,204.9141 532.3594,204.9141 C530.3125,204.9141 529.0156,203.8203 529.0156,202.1172 L529.0156,201.0234 C529.0156,199.2422 530.2656,197.9297 532,197.9297 C532.5781,197.9297 533.1875,198.0859 533.6563,198.3359 C534.1406,198.6172 534.3125,198.8359 534.4063,199.2422 C534.4688,199.6484 534.5,199.7734 534.6406,199.8984 C534.7813,200.0391 535.0156,200.1484 535.2344,200.1484 C535.5,200.1484 535.7656,200.0078 535.9375,199.7891 C536.0469,199.6328 536.0781,199.4453 536.0781,199.0234 L536.0781,197.6016 C536.0781,197.1641 536.0625,197.0391 535.9688,196.8828 C535.8125,196.6172 535.5313,196.4766 535.2344,196.4766 C534.9375,196.4766 534.7344,196.5703 534.5156,196.8828 L534.3438,196.8047 Z " fill="#000000"/><text fill="#000000" font-family="sans-serif" font-size="12" font-style="italic" lengthAdjust="spacing" textLength="47" x="570.5" y="197.1387">&#171;static&#187;</text><text fill="#000000" font-family="sans-serif" font-size="14" lengthAdjust="spacing" textLength="96" x="546" y="212.9639">GameFactory</text><line style="stroke:#181818;stroke-width:0.5;" x1="518" x2="644" y1="221.2656" y2="221.2656"/><line style="stroke:#181818;stroke-width:0.5;" x1="518" x2="644" y1="229.2656" y2="229.2656"/></g><!--class SingletonGameHandler--><g id="elem_SingletonGameHandler"><rect codeLine="8" fill="#F1F1F1" height="56.2656" id="SingletonGameHandler" rx="2.5" ry="2.5" style="stroke:#181818;stroke-width:0.5;" width="198" x="221" y="181"/><ellipse cx="236" cy="201.1328" fill="#ADD1B2" rx="11" ry="11" style="stroke:#181818;stroke-width:1.0;"/><path d="M238.3438,196.8047 C237.4063,196.3672 236.8125,196.2266 235.9375,196.2266 C233.3125,196.2266 231.3125,198.3047 231.3125,201.0234 L231.3125,202.1484 C231.3125,204.7266 233.4219,206.6172 236.3125,206.6172 C237.5313,206.6172 238.6875,206.3203 239.4375,205.7734 C240.0156,205.3672 240.3438,204.9141 240.3438,204.5234 C240.3438,204.0703 239.9531,203.6797 239.4844,203.6797 C239.2656,203.6797 239.0625,203.7578 238.875,203.9453 C238.4219,204.4297 238.4219,204.4297 238.2344,204.5234 C237.8125,204.7891 237.125,204.9141 236.3594,204.9141 C234.3125,204.9141 233.0156,203.8203 233.0156,202.1172 L233.0156,201.0234 C233.0156,199.2422 234.2656,197.9297 236,197.9297 C236.5781,197.9297 237.1875,198.0859 237.6563,198.3359 C238.1406,198.6172 238.3125,198.8359 238.4063,199.2422 C238.4688,199.6484 238.5,199.7734 238.6406,199.8984 C238.7813,200.0391 239.0156,200.1484 239.2344,200.1484 C239.5,200.1484 239.7656,200.0078 239.9375,199.7891 C240.0469,199.6328 240.0781,199.4453 240.0781,199.0234 L240.0781,197.6016 C240.0781,197.1641 240.0625,197.0391 239.9688,196.8828 C239.8125,196.6172 239.5313,196.4766 239.2344,196.4766 C238.9375,196.4766 238.7344,196.5703 238.5156,196.8828 L238.3438,196.8047 Z " fill="#000000"/><text fill="#000000" font-family="sans-serif" font-size="12" font-style="italic" lengthAdjust="spacing" textLength="69" x="298.5" y="197.1387">&#171;singleton&#187;</text><text fill="#000000" font-family="sans-serif" font-size="14" lengthAdjust="spacing" textLength="166" x="250" y="212.9639">SingletonGameHandler</text><line style="stroke:#181818;stroke-width:0.5;" x1="222" x2="418" y1="221.2656" y2="221.2656"/><line style="stroke:#181818;stroke-width:0.5;" x1="222" x2="418" y1="229.2656" y2="229.2656"/></g><!--class EnumGemmes--><g id="elem_EnumGemmes"><rect codeLine="9" fill="#F1F1F1" height="56.2656" id="EnumGemmes" rx="2.5" ry="2.5" style="stroke:#181818;stroke-width:0.5;" width="136" x="53" y="743"/><ellipse cx="68" cy="763.1328" fill="#EB937F" rx="11" ry="11" style="stroke:#181818;stroke-width:1.0;"/><path d="M66.7969,764.0078 L68.25,764.0078 L68.25,764.1172 C68.25,764.5234 68.2813,764.6797 68.3594,764.8359 C68.5156,765.0859 68.7969,765.2422 69.0938,765.2422 C69.3438,765.2422 69.6094,765.1016 69.7656,764.8828 C69.8906,764.7266 69.9219,764.5703 69.9219,764.1172 L69.9219,762.1953 C69.9219,762.0391 69.9219,761.9922 69.9063,761.8359 C69.8438,761.3672 69.5313,761.0547 69.0781,761.0547 C68.8281,761.0547 68.5625,761.1953 68.3906,761.4141 C68.2813,761.5859 68.25,761.7422 68.25,762.1953 L68.25,762.3203 L66.7969,762.3203 L66.7969,759.9141 L70.7813,759.9141 L70.7813,760.7734 C70.7813,761.1797 70.8125,761.3516 70.8906,761.5078 C71.0625,761.7578 71.3438,761.9141 71.625,761.9141 C71.8906,761.9141 72.1563,761.7734 72.3281,761.5547 C72.4375,761.3828 72.4688,761.2422 72.4688,760.7734 L72.4688,758.2266 L64.8438,758.2266 C64.4063,758.2266 64.2813,758.2422 64.125,758.3359 C63.875,758.4922 63.7188,758.7891 63.7188,759.0703 C63.7188,759.3516 63.8594,759.6016 64.0781,759.7734 C64.2344,759.8828 64.4219,759.9141 64.8438,759.9141 L65.0938,759.9141 L65.0938,766.4297 L64.8438,766.4297 C64.4375,766.4297 64.2813,766.4453 64.125,766.5547 C63.875,766.7266 63.7188,766.9922 63.7188,767.2891 C63.7188,767.5547 63.8594,767.8047 64.0781,767.9609 C64.2188,768.0859 64.4531,768.1328 64.8438,768.1328 L72.8438,768.1328 L72.8438,765.5547 C72.8438,765.1172 72.8125,764.9766 72.7344,764.8203 C72.5625,764.5703 72.2813,764.4141 72,764.4141 C71.7344,764.4141 71.4688,764.5234 71.2969,764.7734 C71.1875,764.9297 71.1563,765.0703 71.1563,765.5547 L71.1563,766.4297 L66.7969,766.4297 L66.7969,764.0078 Z " fill="#000000"/><text fill="#000000" font-family="sans-serif" font-size="12" font-style="italic" lengthAdjust="spacing" textLength="49" x="109.5" y="759.1387">&#171;enum&#187;</text><text fill="#000000" font-family="sans-serif" font-size="14" lengthAdjust="spacing" textLength="104" x="82" y="774.9639">EnumGemmes</text><line style="stroke:#181818;stroke-width:0.5;" x1="54" x2="188" y1="783.2656" y2="783.2656"/><line style="stroke:#181818;stroke-width:0.5;" x1="54" x2="188" y1="791.2656" y2="791.2656"/></g><!--class SingletonNobleHandler--><g id="elem_SingletonNobleHandler"><rect codeLine="10" fill="#F1F1F1" height="56.2656" id="SingletonNobleHandler" rx="2.5" ry="2.5" style="stroke:#181818;stroke-width:0.5;" width="198" x="497" y="470"/><ellipse cx="512" cy="490.1328" fill="#ADD1B2" rx="11" ry="11" style="stroke:#181818;stroke-width:1.0;"/><path d="M514.3438,485.8047 C513.4063,485.3672 512.8125,485.2266 511.9375,485.2266 C509.3125,485.2266 507.3125,487.3047 507.3125,490.0234 L507.3125,491.1484 C507.3125,493.7266 509.4219,495.6172 512.3125,495.6172 C513.5313,495.6172 514.6875,495.3203 515.4375,494.7734 C516.0156,494.3672 516.3438,493.9141 516.3438,493.5234 C516.3438,493.0703 515.9531,492.6797 515.4844,492.6797 C515.2656,492.6797 515.0625,492.7578 514.875,492.9453 C514.4219,493.4297 514.4219,493.4297 514.2344,493.5234 C513.8125,493.7891 513.125,493.9141 512.3594,493.9141 C510.3125,493.9141 509.0156,492.8203 509.0156,491.1172 L509.0156,490.0234 C509.0156,488.2422 510.2656,486.9297 512,486.9297 C512.5781,486.9297 513.1875,487.0859 513.6563,487.3359 C514.1406,487.6172 514.3125,487.8359 514.4063,488.2422 C514.4688,488.6484 514.5,488.7734 514.6406,488.8984 C514.7813,489.0391 515.0156,489.1484 515.2344,489.1484 C515.5,489.1484 515.7656,489.0078 515.9375,488.7891 C516.0469,488.6328 516.0781,488.4453 516.0781,488.0234 L516.0781,486.6016 C516.0781,486.1641 516.0625,486.0391 515.9688,485.8828 C515.8125,485.6172 515.5313,485.4766 515.2344,485.4766 C514.9375,485.4766 514.7344,485.5703 514.5156,485.8828 L514.3438,485.8047 Z " fill="#000000"/><text fill="#000000" font-family="sans-serif" font-size="12" font-style="italic" lengthAdjust="spacing" textLength="69" x="574.5" y="486.1387">&#171;singleton&#187;</text><text fill="#000000" font-family="sans-serif" font-size="14" lengthAdjust="spacing" textLength="166" x="526" y="501.9639">SingletonNobleHandler</text><line style="stroke:#181818;stroke-width:0.5;" x1="498" x2="694" y1="510.2656" y2="510.2656"/><line style="stroke:#181818;stroke-width:0.5;" x1="498" x2="694" y1="518.2656" y2="518.2656"/></g><!--class Player--><g id="elem_Player"><rect codeLine="11" fill="#F1F1F1" height="48" id="Player" rx="2.5" ry="2.5" style="stroke:#181818;stroke-width:0.5;" width="76" x="315" y="314"/><ellipse cx="330" cy="330" fill="#ADD1B2" rx="11" ry="11" style="stroke:#181818;stroke-width:1.0;"/><path d="M332.3438,325.6719 C331.4063,325.2344 330.8125,325.0938 329.9375,325.0938 C327.3125,325.0938 325.3125,327.1719 325.3125,329.8906 L325.3125,331.0156 C325.3125,333.5938 327.4219,335.4844 330.3125,335.4844 C331.5313,335.4844 332.6875,335.1875 333.4375,334.6406 C334.0156,334.2344 334.3438,333.7813 334.3438,333.3906 C334.3438,332.9375 333.9531,332.5469 333.4844,332.5469 C333.2656,332.5469 333.0625,332.625 332.875,332.8125 C332.4219,333.2969 332.4219,333.2969 332.2344,333.3906 C331.8125,333.6563 331.125,333.7813 330.3594,333.7813 C328.3125,333.7813 327.0156,332.6875 327.0156,330.9844 L327.0156,329.8906 C327.0156,328.1094 328.2656,326.7969 330,326.7969 C330.5781,326.7969 331.1875,326.9531 331.6563,327.2031 C332.1406,327.4844 332.3125,327.7031 332.4063,328.1094 C332.4688,328.5156 332.5,328.6406 332.6406,328.7656 C332.7813,328.9063 333.0156,329.0156 333.2344,329.0156 C333.5,329.0156 333.7656,328.875 333.9375,328.6563 C334.0469,328.5 334.0781,328.3125 334.0781,327.8906 L334.0781,326.4688 C334.0781,326.0313 334.0625,325.9063 333.9688,325.75 C333.8125,325.4844 333.5313,325.3438 333.2344,325.3438 C332.9375,325.3438 332.7344,325.4375 332.5156,325.75 L332.3438,325.6719 Z " fill="#000000"/><text fill="#000000" font-family="sans-serif" font-size="14" lengthAdjust="spacing" textLength="44" x="344" y="334.8467">Player</text><line style="stroke:#181818;stroke-width:0.5;" x1="316" x2="390" y1="346" y2="346"/><line style="stroke:#181818;stroke-width:0.5;" x1="316" x2="390" y1="354" y2="354"/></g><!--class AI--><g id="elem_AI"><rect codeLine="12" fill="#F1F1F1" height="48" id="AI" rx="2.5" ry="2.5" style="stroke:#181818;stroke-width:0.5;" width="46" x="426" y="314"/><ellipse cx="441" cy="330" fill="#ADD1B2" rx="11" ry="11" style="stroke:#181818;stroke-width:1.0;"/><path d="M443.3438,325.6719 C442.4063,325.2344 441.8125,325.0938 440.9375,325.0938 C438.3125,325.0938 436.3125,327.1719 436.3125,329.8906 L436.3125,331.0156 C436.3125,333.5938 438.4219,335.4844 441.3125,335.4844 C442.5313,335.4844 443.6875,335.1875 444.4375,334.6406 C445.0156,334.2344 445.3438,333.7813 445.3438,333.3906 C445.3438,332.9375 444.9531,332.5469 444.4844,332.5469 C444.2656,332.5469 444.0625,332.625 443.875,332.8125 C443.4219,333.2969 443.4219,333.2969 443.2344,333.3906 C442.8125,333.6563 442.125,333.7813 441.3594,333.7813 C439.3125,333.7813 438.0156,332.6875 438.0156,330.9844 L438.0156,329.8906 C438.0156,328.1094 439.2656,326.7969 441,326.7969 C441.5781,326.7969 442.1875,326.9531 442.6563,327.2031 C443.1406,327.4844 443.3125,327.7031 443.4063,328.1094 C443.4688,328.5156 443.5,328.6406 443.6406,328.7656 C443.7813,328.9063 444.0156,329.0156 444.2344,329.0156 C444.5,329.0156 444.7656,328.875 444.9375,328.6563 C445.0469,328.5 445.0781,328.3125 445.0781,327.8906 L445.0781,326.4688 C445.0781,326.0313 445.0625,325.9063 444.9688,325.75 C444.8125,325.4844 444.5313,325.3438 444.2344,325.3438 C443.9375,325.3438 443.7344,325.4375 443.5156,325.75 L443.3438,325.6719 Z " fill="#000000"/><text fill="#000000" font-family="sans-serif" font-size="14" lengthAdjust="spacing" textLength="14" x="455" y="334.8467">AI</text><line style="stroke:#181818;stroke-width:0.5;" x1="427" x2="471" y1="346" y2="346"/><line style="stroke:#181818;stroke-width:0.5;" x1="427" x2="471" y1="354" y2="354"/></g><!--class SingletonPrivilegeHandler--><g id="elem_SingletonPrivilegeHandler"><rect codeLine="13" fill="#F1F1F1" height="56.2656" id="SingletonPrivilegeHandler" rx="2.5" ry="2.5" style="stroke:#181818;stroke-width:0.5;" width="218" x="207" y="470"/><ellipse cx="222" cy="490.1328" fill="#ADD1B2" rx="11" ry="11" style="stroke:#181818;stroke-width:1.0;"/><path d="M224.3438,485.8047 C223.4063,485.3672 222.8125,485.2266 221.9375,485.2266 C219.3125,485.2266 217.3125,487.3047 217.3125,490.0234 L217.3125,491.1484 C217.3125,493.7266 219.4219,495.6172 222.3125,495.6172 C223.5313,495.6172 224.6875,495.3203 225.4375,494.7734 C226.0156,494.3672 226.3438,493.9141 226.3438,493.5234 C226.3438,493.0703 225.9531,492.6797 225.4844,492.6797 C225.2656,492.6797 225.0625,492.7578 224.875,492.9453 C224.4219,493.4297 224.4219,493.4297 224.2344,493.5234 C223.8125,493.7891 223.125,493.9141 222.3594,493.9141 C220.3125,493.9141 219.0156,492.8203 219.0156,491.1172 L219.0156,490.0234 C219.0156,488.2422 220.2656,486.9297 222,486.9297 C222.5781,486.9297 223.1875,487.0859 223.6563,487.3359 C224.1406,487.6172 224.3125,487.8359 224.4063,488.2422 C224.4688,488.6484 224.5,488.7734 224.6406,488.8984 C224.7813,489.0391 225.0156,489.1484 225.2344,489.1484 C225.5,489.1484 225.7656,489.0078 225.9375,488.7891 C226.0469,488.6328 226.0781,488.4453 226.0781,488.0234 L226.0781,486.6016 C226.0781,486.1641 226.0625,486.0391 225.9688,485.8828 C225.8125,485.6172 225.5313,485.4766 225.2344,485.4766 C224.9375,485.4766 224.7344,485.5703 224.5156,485.8828 L224.3438,485.8047 Z " fill="#000000"/><text fill="#000000" font-family="sans-serif" font-size="12" font-style="italic" lengthAdjust="spacing" textLength="69" x="294.5" y="486.1387">&#171;singleton&#187;</text><text fill="#000000" font-family="sans-serif" font-size="14" lengthAdjust="spacing" textLength="186" x="236" y="501.9639">SingletonPrivilegeHandler</text><line style="stroke:#181818;stroke-width:0.5;" x1="208" x2="424" y1="510.2656" y2="510.2656"/><line style="stroke:#181818;stroke-width:0.5;" x1="208" x2="424" y1="518.2656" y2="518.2656"/></g><!--class Rules--><g id="elem_Rules"><rect codeLine="17" fill="#F1F1F1" height="56.2656" id="Rules" rx="2.5" ry="2.5" style="stroke:#181818;stroke-width:0.5;" width="75" x="509.5" y="41"/><ellipse cx="524.5" cy="61.1328" fill="#ADD1B2" rx="11" ry="11" style="stroke:#181818;stroke-width:1.0;"/><path d="M526.8438,56.8047 C525.9063,56.3672 525.3125,56.2266 524.4375,56.2266 C521.8125,56.2266 519.8125,58.3047 519.8125,61.0234 L519.8125,62.1484 C519.8125,64.7266 521.9219,66.6172 524.8125,66.6172 C526.0313,66.6172 527.1875,66.3203 527.9375,65.7734 C528.5156,65.3672 528.8438,64.9141 528.8438,64.5234 C528.8438,64.0703 528.4531,63.6797 527.9844,63.6797 C527.7656,63.6797 527.5625,63.7578 527.375,63.9453 C526.9219,64.4297 526.9219,64.4297 526.7344,64.5234 C526.3125,64.7891 525.625,64.9141 524.8594,64.9141 C522.8125,64.9141 521.5156,63.8203 521.5156,62.1172 L521.5156,61.0234 C521.5156,59.2422 522.7656,57.9297 524.5,57.9297 C525.0781,57.9297 525.6875,58.0859 526.1563,58.3359 C526.6406,58.6172 526.8125,58.8359 526.9063,59.2422 C526.9688,59.6484 527,59.7734 527.1406,59.8984 C527.2813,60.0391 527.5156,60.1484 527.7344,60.1484 C528,60.1484 528.2656,60.0078 528.4375,59.7891 C528.5469,59.6328 528.5781,59.4453 528.5781,59.0234 L528.5781,57.6016 C528.5781,57.1641 528.5625,57.0391 528.4688,56.8828 C528.3125,56.6172 528.0313,56.4766 527.7344,56.4766 C527.4375,56.4766 527.2344,56.5703 527.0156,56.8828 L526.8438,56.8047 Z " fill="#000000"/><text fill="#000000" font-family="sans-serif" font-size="12" font-style="italic" lengthAdjust="spacing" textLength="47" x="536.5" y="57.1387">&#171;static&#187;</text><text fill="#000000" font-family="sans-serif" font-size="14" lengthAdjust="spacing" textLength="38" x="541" y="72.9639">Rules</text><line style="stroke:#181818;stroke-width:0.5;" x1="510.5" x2="583.5" y1="81.2656" y2="81.2656"/><line style="stroke:#181818;stroke-width:0.5;" x1="510.5" x2="583.5" y1="89.2656" y2="89.2656"/></g><!--class XmlReader--><g id="elem_XmlReader"><rect codeLine="18" fill="#F1F1F1" height="56.2656" id="XmlReader" rx="2.5" ry="2.5" style="stroke:#181818;stroke-width:0.5;" width="111" x="619.5" y="41"/><ellipse cx="634.5" cy="61.1328" fill="#ADD1B2" rx="11" ry="11" style="stroke:#181818;stroke-width:1.0;"/><path d="M636.8438,56.8047 C635.9063,56.3672 635.3125,56.2266 634.4375,56.2266 C631.8125,56.2266 629.8125,58.3047 629.8125,61.0234 L629.8125,62.1484 C629.8125,64.7266 631.9219,66.6172 634.8125,66.6172 C636.0313,66.6172 637.1875,66.3203 637.9375,65.7734 C638.5156,65.3672 638.8438,64.9141 638.8438,64.5234 C638.8438,64.0703 638.4531,63.6797 637.9844,63.6797 C637.7656,63.6797 637.5625,63.7578 637.375,63.9453 C636.9219,64.4297 636.9219,64.4297 636.7344,64.5234 C636.3125,64.7891 635.625,64.9141 634.8594,64.9141 C632.8125,64.9141 631.5156,63.8203 631.5156,62.1172 L631.5156,61.0234 C631.5156,59.2422 632.7656,57.9297 634.5,57.9297 C635.0781,57.9297 635.6875,58.0859 636.1563,58.3359 C636.6406,58.6172 636.8125,58.8359 636.9063,59.2422 C636.9688,59.6484 637,59.7734 637.1406,59.8984 C637.2813,60.0391 637.5156,60.1484 637.7344,60.1484 C638,60.1484 638.2656,60.0078 638.4375,59.7891 C638.5469,59.6328 638.5781,59.4453 638.5781,59.0234 L638.5781,57.6016 C638.5781,57.1641 638.5625,57.0391 638.4688,56.8828 C638.3125,56.6172 638.0313,56.4766 637.7344,56.4766 C637.4375,56.4766 637.2344,56.5703 637.0156,56.8828 L636.8438,56.8047 Z " fill="#000000"/><text fill="#000000" font-family="sans-serif" font-size="12" font-style="italic" lengthAdjust="spacing" textLength="47" x="664.5" y="57.1387">&#171;static&#187;</text><text fill="#000000" font-family="sans-serif" font-size="14" lengthAdjust="spacing" textLength="79" x="648.5" y="72.9639">XmlReader</text><line style="stroke:#181818;stroke-width:0.5;" x1="620.5" x2="729.5" y1="81.2656" y2="81.2656"/><line style="stroke:#181818;stroke-width:0.5;" x1="620.5" x2="729.5" y1="89.2656" y2="89.2656"/></g><!--reverse link Bag to EnumGemmes--><g id="link_Bag_EnumGemmes"><path codeLine="22" d="M71.9882,615.6125 C83.1283,650.7035 100.596,705.729 112.419,742.9711 " fill="none" id="Bag-backto-EnumGemmes" style="stroke:#181818;stroke-width:1.0;"/><polygon fill="none" points="68.3572,604.175,66.3602,611.1041,71.9882,615.6125,73.9852,608.6834,68.3572,604.175" style="stroke:#181818;stroke-width:1.0;"/><text fill="#000000" font-family="sans-serif" font-size="13" lengthAdjust="spacing" textLength="32" x="114.1346" y="731.8065">0..25</text></g><!--reverse link Board to EnumGemmes--><g id="link_Board_EnumGemmes"><path codeLine="24" d="M44.7074,451.4682 C30.8545,487.0932 13.358,545.924 28,604 C41.4461,657.333 76.7415,711.511 99.777,742.8741 " fill="none" id="Board-backto-EnumGemmes" style="stroke:#181818;stroke-width:1.0;"/><polygon fill="none" points="49.0564,440.284,43.1538,444.4264,44.7074,451.4682,50.61,447.3258,49.0564,440.284" style="stroke:#181818;stroke-width:1.0;"/><text fill="#000000" font-family="sans-serif" font-size="13" lengthAdjust="spacing" textLength="32" x="59.6348" y="732.1332">0..25</text></g><!--reverse link Card to EnumGemmes--><g id="link_Card_EnumGemmes"><path codeLine="26" d="M155.5899,693.2104 C147.6299,710.8834 141.591,724.288 133.23,742.8497 " fill="none" id="Card-backto-EnumGemmes" style="stroke:#181818;stroke-width:1.0;"/><polygon fill="none" points="160.518,682.269,154.4068,686.097,155.5899,693.2104,161.7011,689.3824,160.518,682.269" style="stroke:#181818;stroke-width:1.0;"/><text fill="#000000" font-family="sans-serif" font-size="13" lengthAdjust="spacing" textLength="8" x="127.0303" y="732.1039">1</text></g><!--reverse link Card to EnumAction--><g id="link_Card_EnumAction"><path codeLine="27" d="M215.5394,667.2264 C312.4184,685.1184 586.905,735.8145 712.173,758.9504 " fill="none" id="Card-backto-EnumAction" style="stroke:#181818;stroke-width:1.0;"/><polygon fill="none" points="203.739,665.047,208.9128,670.0702,215.5394,667.2264,210.3657,662.2032,203.739,665.047" style="stroke:#181818;stroke-width:1.0;"/><text fill="#000000" font-family="sans-serif" font-size="13" lengthAdjust="spacing" textLength="24" x="680.3169" y="753.8863">0..2</text></g><!--reverse link DrawPile to Card--><g id="link_DrawPile_Card"><path codeLine="29" d="M132.2425,450.3956 C126.8345,459.2936 127.747,459.571 125,470 C109.831,527.591 104.165,548.208 125,604 C129.135,615.071 136.74,625.362 144.593,633.874 " fill="none" id="DrawPile-backto-Card" style="stroke:#181818;stroke-width:1.0;"/><polygon fill="#181818" points="138.475,440.141,131.9406,443.1908,132.2425,450.3956,138.7769,447.3458,138.475,440.141" style="stroke:#181818;stroke-width:1.0;"/><text fill="#000000" font-family="sans-serif" font-size="13" lengthAdjust="spacing" textLength="7" x="129.9293" y="622.8537">*</text></g><!--reverse link SingletonGameHandler to Bag--><g id="link_SingletonGameHandler_Bag"><path codeLine="31" d="M250.4302,242.735 C234.2192,251.316 227.68,255.879 213,267 C154.937,310.984 137.666,325.928 107,392 C97.826,411.766 101.955,418.78 97,440 C87.4198,481.025 74.7995,528.461 67.328,555.965 " fill="none" id="SingletonGameHandler-backto-Bag" style="stroke:#181818;stroke-width:1.0;"/><polygon fill="#181818" points="261.036,237.121,253.8618,236.3927,250.4302,242.735,257.6044,243.4633,261.036,237.121" style="stroke:#181818;stroke-width:1.0;"/><text fill="#000000" font-family="sans-serif" font-size="13" lengthAdjust="spacing" textLength="8" x="59.9246" y="544.9681">1</text></g><!--reverse link SingletonGameHandler to Board--><g id="link_SingletonGameHandler_Board"><path codeLine="32" d="M208.96,226.6233 C156.593,236.2303 111.273,248.354 93,267 C60.0619,300.61 56.5269,359.305 57.4053,391.762 " fill="none" id="SingletonGameHandler-backto-Board" style="stroke:#181818;stroke-width:1.0;"/><polygon fill="#181818" points="220.763,224.458,214.1397,221.6063,208.96,226.6233,215.5833,229.475,220.763,224.458" style="stroke:#181818;stroke-width:1.0;"/><text fill="#000000" font-family="sans-serif" font-size="13" lengthAdjust="spacing" textLength="8" x="48.0416" y="381.1089">1</text></g><!--reverse link SingletonGameHandler to DrawPile--><g id="link_SingletonGameHandler_DrawPile"><path codeLine="33" d="M259.193,243.7032 C246.353,252.1282 243.326,255.644 233,267 C198.61,304.821 174.639,360.591 163.016,391.754 " fill="none" id="SingletonGameHandler-backto-DrawPile" style="stroke:#181818;stroke-width:1.0;"/><polygon fill="#181818" points="269.226,237.12,262.0151,237.0673,259.193,243.7032,266.4039,243.7559,269.226,237.12" style="stroke:#181818;stroke-width:1.0;"/><text fill="#000000" font-family="sans-serif" font-size="13" lengthAdjust="spacing" textLength="8" x="155.9949" y="381.099">3</text></g><!--reverse link SingletonGameHandler to Card--><g id="link_SingletonGameHandler_Card"><path codeLine="34" d="M294.7161,247.0817 C288.5871,256.3967 288.531,256.981 283,267 C262.528,304.08 231.014,408.231 203,440 C186.361,458.869 167.703,448.286 155,470 C124.561,522.03 146.471,596.518 160.966,633.833 " fill="none" id="SingletonGameHandler-backto-Card" style="stroke:#181818;stroke-width:1.0;"/><polygon fill="#181818" points="301.312,237.057,294.6725,239.8707,294.7161,247.0817,301.3556,244.268,301.312,237.057" style="stroke:#181818;stroke-width:1.0;"/><text fill="#000000" font-family="sans-serif" font-size="13" lengthAdjust="spacing" textLength="98" x="232" y="420.5669">displayedCards</text><text fill="#000000" font-family="sans-serif" font-size="13" lengthAdjust="spacing" textLength="7" x="150.4979" y="622.8022">*</text></g><!--reverse link SingletonGameHandler to Card--><g id="link_SingletonGameHandler_Card"><path codeLine="35" d="M412.3566,242.1895 C446.8246,258.4445 472.029,278.01 489,314 C517.846,375.174 475.982,485.639 442,526 C378.387,601.552 260.992,636.95 203.9,650.303 " fill="none" id="SingletonGameHandler-backto-Card-1" style="stroke:#181818;stroke-width:1.0;"/><polygon fill="#181818" points="401.503,237.071,405.2236,243.2481,412.3566,242.1895,408.636,236.0124,401.503,237.071" style="stroke:#181818;stroke-width:1.0;"/><text fill="#000000" font-family="sans-serif" font-size="13" lengthAdjust="spacing" textLength="55" x="498" y="420.5669">toAssign</text><text fill="#000000" font-family="sans-serif" font-size="13" lengthAdjust="spacing" textLength="24" x="211.6172" y="644.7693">0..1</text></g><!--reverse link SingletonGameHandler to Player--><g id="link_SingletonGameHandler_Player"><path codeLine="36" d="M359.5001,245.89 C367.4241,254.569 366.782,255.96 371,267 C376.822,282.238 372.089,300.051 366.02,313.895 " fill="none" id="SingletonGameHandler-backto-Player" style="stroke:#181818;stroke-width:1.0;"/><polygon fill="#181818" points="351.409,237.028,352.5005,244.156,359.5001,245.89,358.4085,238.762,351.409,237.028" style="stroke:#181818;stroke-width:1.0;"/><text fill="#000000" font-family="sans-serif" font-size="13" lengthAdjust="spacing" textLength="48" x="375" y="280.0669">player1</text><text fill="#000000" font-family="sans-serif" font-size="13" lengthAdjust="spacing" textLength="8" x="360.3314" y="302.8801">1</text></g><!--reverse link SingletonGameHandler to Player--><g id="link_SingletonGameHandler_Player"><path codeLine="37" d="M309.8361,249.1052 C307.0471,263.3422 307.999,269.072 313,284 C316.625,294.821 323.429,305.199 330.41,313.859 " fill="none" id="SingletonGameHandler-backto-Player-1" style="stroke:#181818;stroke-width:1.0;"/><polygon fill="#181818" points="312.143,237.329,307.0641,242.4481,309.8361,249.1052,314.9149,243.9861,312.143,237.329" style="stroke:#181818;stroke-width:1.0;"/><text fill="#000000" font-family="sans-serif" font-size="13" lengthAdjust="spacing" textLength="48" x="314" y="280.0669">player2</text><text fill="#000000" font-family="sans-serif" font-size="13" lengthAdjust="spacing" textLength="8" x="315.5963" y="302.8349">1</text></g><!--reverse link SingletonGameHandler to EnumGemmes--><g id="link_SingletonGameHandler_EnumGemmes"><path codeLine="38" d="M430.8762,226.4017 C468.8172,234.8177 499.509,245.652 534,267 C652.981,340.642 779.975,403.142 713,526 C609.51,715.841 321.548,758.0601 189.164,767.3889 " fill="none" id="SingletonGameHandler-backto-EnumGemmes" style="stroke:#181818;stroke-width:1.0;"/><polygon fill="none" points="419.161,223.803,424.1524,229.0074,430.8762,226.4017,425.8848,221.1972,419.161,223.803" style="stroke:#181818;stroke-width:1.0;"/><text fill="#000000" font-family="sans-serif" font-size="13" lengthAdjust="spacing" textLength="96" x="732" y="502.5669">gemme to pick</text><text fill="#000000" font-family="sans-serif" font-size="13" lengthAdjust="spacing" textLength="8" x="197.0569" y="763.2333">1</text></g><!--link SingletonGameHandler to SingletonPrivilegeHandler--><g id="link_SingletonGameHandler_SingletonPrivilegeHandler"><path codeLine="40" d="M305.965,237.232 C291.582,269.273 274.281,323.035 297,362 C310.633,385.383 336.367,368.617 350,392 C360.745,410.43 355.668,419.433 350,440 C347.122,450.442 344.9368,455.8023 339.3198,464.8573 " fill="none" id="SingletonGameHandler-to-SingletonPrivilegeHandler" style="stroke:#181818;stroke-width:1.0;stroke-dasharray:7.0,7.0;"/><polygon fill="#181818" points="336.157,469.956,344.3003,464.4165,338.7927,465.7071,337.5021,460.1994,336.157,469.956" style="stroke:#181818;stroke-width:1.0;"/></g><!--link AI to SingletonPrivilegeHandler--><g id="link_AI_SingletonPrivilegeHandler"><path codeLine="41" d="M429.375,362.313 C405.241,390.984 368.211,434.9748 342.694,465.2878 " fill="none" id="AI-to-SingletonPrivilegeHandler" style="stroke:#181818;stroke-width:1.0;stroke-dasharray:7.0,7.0;"/><polygon fill="#181818" points="338.83,469.878,347.6861,465.5687,342.05,466.0528,341.5658,460.4167,338.83,469.878" style="stroke:#181818;stroke-width:1.0;"/></g><!--link Rules to SingletonNobleHandler--><g id="link_Rules_SingletonNobleHandler"><path codeLine="43" d="M571.261,97.185 C580.19,105.84 590.861,114.773 602,121 C626.566,134.733 645.979,115.586 663,138 C740.649,240.248 656.6823,400.258 616.8783,464.806 " fill="none" id="Rules-to-SingletonNobleHandler" style="stroke:#181818;stroke-width:1.0;stroke-dasharray:7.0,7.0;"/><polygon fill="#181818" points="613.729,469.913,621.8576,464.352,616.3534,465.6571,615.0482,460.1529,613.729,469.913" style="stroke:#181818;stroke-width:1.0;"/></g><!--link Player to SingletonNobleHandler--><g id="link_Player_SingletonNobleHandler"><path codeLine="44" d="M367.916,362.051 C383.643,384.714 410.357,418.89 441,440 C458.59,452.118 473.4857,459.8156 493.6817,467.7516 " fill="none" id="Player-to-SingletonNobleHandler" style="stroke:#181818;stroke-width:1.0;stroke-dasharray:7.0,7.0;"/><polygon fill="#181818" points="499.266,469.946,492.3524,462.9316,494.6124,468.1174,489.4266,470.3774,499.266,469.946" style="stroke:#181818;stroke-width:1.0;"/></g><!--link SingletonGameHandler to SingletonNobleHandler--><g id="link_SingletonGameHandler_SingletonNobleHandler"><path codeLine="45" d="M419.035,219.763 C453.72,227.686 490.568,241.837 517,267 C574.948,322.165 589.8814,415.7099 593.9954,463.6919 " fill="none" id="SingletonGameHandler-to-SingletonNobleHandler" style="stroke:#181818;stroke-width:1.0;stroke-dasharray:7.0,7.0;"/><polygon fill="#181818" points="594.508,469.67,597.7245,460.3612,594.0809,464.6883,589.7538,461.0446,594.508,469.67" style="stroke:#181818;stroke-width:1.0;"/></g><!--reverse link Player to AI--><g id="link_Player_AI"><path codeLine="47" d="M409.25,338 C420.83,338 414.41,338 425.99,338 " fill="none" id="Player-backto-AI" style="stroke:#181818;stroke-width:1.0;"/><polygon fill="none" points="391.25,338,409.25,344,409.25,332,391.25,338" style="stroke:#181818;stroke-width:1.0;"/></g><!--reverse link SingletonNobleHandler to Card--><g id="link_SingletonNobleHandler_Card"><path codeLine="49" d="M562.99,535.078 C539.434,559.459 510.024,585.397 470,604 C379.883,645.886 260.366,654.824 203.604,656.625 " fill="none" id="SingletonNobleHandler-backto-Card" style="stroke:#181818;stroke-width:1.0;"/><polygon fill="#181818" points="571.328,526.448,564.2823,527.9837,562.99,535.078,570.0357,533.5424,571.328,526.448" style="stroke:#181818;stroke-width:1.0;"/><text fill="#000000" font-family="sans-serif" font-size="13" lengthAdjust="spacing" textLength="42" x="541" y="584.5669">nobles</text><text fill="#000000" font-family="sans-serif" font-size="13" lengthAdjust="spacing" textLength="8" x="211.6111" y="670.0463">4</text></g><!--reverse link Player to Card--><g id="link_Player_Card"><path codeLine="51" d="M353.9658,374.2498 C354.3438,400.4988 353.024,428.99 343,440 C296.056,491.563 235.873,418.373 189,470 C147.892,515.276 157.345,594.544 165.347,633.724 " fill="none" id="Player-backto-Card" style="stroke:#181818;stroke-width:1.0;"/><polygon fill="#181818" points="353.793,362.251,349.8798,368.308,353.9658,374.2498,357.879,368.1928,353.793,362.251" style="stroke:#181818;stroke-width:1.0;"/><text fill="#000000" font-family="sans-serif" font-size="13" lengthAdjust="spacing" textLength="7" x="156.116" y="623.0617">*</text></g><!--reverse link Rules to SingletonGameHandler--><g id="link_Rules_SingletonGameHandler"><path codeLine="54" d="M504.134,96.0598 C464.295,120.2788 406.666,155.313 364.457,180.974 " fill="none" id="Rules-backto-SingletonGameHandler" style="stroke:#181818;stroke-width:1.0;stroke-dasharray:7.0,7.0;"/><polygon fill="#181818" points="509.261,92.943,499.4927,94.2002,504.9885,95.5403,503.6484,101.0361,509.261,92.943" style="stroke:#181818;stroke-width:1.0;"/></g><!--reverse link XmlReader to SingletonNobleHandler--><g id="link_XmlReader_SingletonNobleHandler"><path codeLine="56" d="M691.3148,102.5779 C696.9308,114.7729 700.419,124.079 704,138 C720.229,201.092 723.579,219.187 717,284 C709.674,356.17 712.819,382.189 669,440 C660.55,451.148 649.412,461.303 638.389,469.851 " fill="none" id="XmlReader-backto-SingletonNobleHandler" style="stroke:#181818;stroke-width:1.0;stroke-dasharray:7.0,7.0;"/><polygon fill="#181818" points="688.805,97.128,688.9364,106.976,690.8965,101.6696,696.2029,103.6296,688.805,97.128" style="stroke:#181818;stroke-width:1.0;"/></g><!--reverse link XmlReader to GameFactory--><g id="link_XmlReader_GameFactory"><path codeLine="57" d="M653.0512,102.2229 C636.5712,126.4169 616.001,156.616 599.533,180.792 " fill="none" id="XmlReader-backto-GameFactory" style="stroke:#181818;stroke-width:1.0;stroke-dasharray:7.0,7.0;"/><polygon fill="#181818" points="656.429,97.264,648.0564,102.4505,653.6142,101.3964,654.6682,106.9542,656.429,97.264" style="stroke:#181818;stroke-width:1.0;"/></g><!--SRC=[dPJVIyCm4CVVxwyu-ZXOSLDVHXdKgLCG6HF1rzY649OsfUcKCVU_cxHTIVfhOXzAU_dSjtVvNfgHQ4SOHMzD4leY6OyyF0BgYwRx11_qBOmABbCyugcCHu8eXNUIv74xHbWhikf2zpdvtd11Ms7p-KSI5J8_O12WAaZ18rmkMzWRJvcWXKmD_qJIMD2yvCznEwNfO4sJX2h3bQ5XrLVvAIxALZaRGGuQSeFXCmv9RtB-fTjce_8dWEnio7l1XJgRKObjzw9gOsXxFXAnfIIkrHr8IuCnI4wdw5tv_lpMi_O6eF7VhwmTubRDuinPM3b9dZKv08td4xC-ySgv0EWrSr9Bwrh7WLR18_2rrqpT25MNXGkCkSgCkx5vLoCfkjDParN8K2dEqhzMNG_G0ijlvRD_vitxyxeEwGnc7dIXcF5eDx3_lhyS6LhG4pvA05H3wa3siO9E9yFevG8Tl2iT_4prcRGwTGvukRStZO6fMLCzAkxKrWq6lj_xDmAm3g7DEAMwZFNp-mK0]--></g></svg>