<?xml version="1.0" encoding="us-ascii" standalone="no"?><svg xmlns="http://www.w3.org/2000/svg" xmlns:xlink="http://www.w3.org/1999/xlink" contentStyleType="text/css" height="961px" preserveAspectRatio="none" style="width:2159px;height:961px;background:#FFFFFF;" version="1.1" viewBox="0 0 2159 961" width="2159px" zoomAndPan="magnify"><defs/><g><!--cluster GameLogic--><g id="cluster_GameLogic"><path d="M395.6777,855 L485.6777,855 A3.75,3.75 0 0 1 488.1777,857.5 L495.1777,877.2969 L770.6777,877.2969 A2.5,2.5 0 0 1 773.1777,879.7969 L773.1777,951.5 A2.5,2.5 0 0 1 770.6777,954 L395.6777,954 A2.5,2.5 0 0 1 393.1777,951.5 L393.1777,857.5 A2.5,2.5 0 0 1 395.6777,855 " fill="none" style="stroke:#000000;stroke-width:1.5;"/><line style="stroke:#000000;stroke-width:1.5;" x1="393.1777" x2="495.1777" y1="877.2969" y2="877.2969"/><text fill="#000000" font-family="sans-serif" font-size="14" font-weight="bold" lengthAdjust="spacing" textLength="89" x="397.1777" y="869.9951">GameLogic</text></g><!--cluster Utils--><g id="cluster_Utils"><path d="M615.6777,71 L654.6777,71 A3.75,3.75 0 0 1 657.1777,73.5 L664.1777,93.2969 L718.6777,93.2969 A2.5,2.5 0 0 1 721.1777,95.7969 L721.1777,167.5 A2.5,2.5 0 0 1 718.6777,170 L615.6777,170 A2.5,2.5 0 0 1 613.1777,167.5 L613.1777,73.5 A2.5,2.5 0 0 1 615.6777,71 " fill="none" style="stroke:#000000;stroke-width:1.5;"/><line style="stroke:#000000;stroke-width:1.5;" x1="613.1777" x2="664.1777" y1="93.2969" y2="93.2969"/><text fill="#000000" font-family="sans-serif" font-size="14" font-weight="bold" lengthAdjust="spacing" textLength="38" x="617.1777" y="85.9951">Utils</text></g><!--cluster UI--><g id="cluster_UI"><path d="M99.6777,202 L116.6777,202 A3.75,3.75 0 0 1 119.1777,204.5 L126.1777,224.2969 L2121.6777,224.2969 A2.5,2.5 0 0 1 2124.1777,226.7969 L2124.1777,820.5 A2.5,2.5 0 0 1 2121.6777,823 L99.6777,823 A2.5,2.5 0 0 1 97.1777,820.5 L97.1777,204.5 A2.5,2.5 0 0 1 99.6777,202 " fill="none" style="stroke:#000000;stroke-width:1.5;"/><line style="stroke:#000000;stroke-width:1.5;" x1="97.1777" x2="126.1777" y1="224.2969" y2="224.2969"/><text fill="#000000" font-family="sans-serif" font-size="14" font-weight="bold" lengthAdjust="spacing" textLength="16" x="101.1777" y="216.9951">UI</text></g><!--cluster Board--><g id="cluster_Board"><path d="M812.6777,492 L861.6777,492 A3.75,3.75 0 0 1 864.1777,494.5 L871.1777,514.2969 L1396.6777,514.2969 A2.5,2.5 0 0 1 1399.1777,516.7969 L1399.1777,712.5 A2.5,2.5 0 0 1 1396.6777,715 L812.6777,715 A2.5,2.5 0 0 1 810.1777,712.5 L810.1777,494.5 A2.5,2.5 0 0 1 812.6777,492 " fill="none" style="stroke:#000000;stroke-width:1.5;"/><line style="stroke:#000000;stroke-width:1.5;" x1="810.1777" x2="871.1777" y1="514.2969" y2="514.2969"/><text fill="#000000" font-family="sans-serif" font-size="14" font-weight="bold" lengthAdjust="spacing" textLength="48" x="814.1777" y="506.9951">Board</text></g><!--cluster Player--><g id="cluster_Player"><path d="M139.6777,361 L190.6777,361 A3.75,3.75 0 0 1 193.1777,363.5 L200.1777,383.2969 L775.6777,383.2969 A2.5,2.5 0 0 1 778.1777,385.7969 L778.1777,596.5 A2.5,2.5 0 0 1 775.6777,599 L139.6777,599 A2.5,2.5 0 0 1 137.1777,596.5 L137.1777,363.5 A2.5,2.5 0 0 1 139.6777,361 " fill="none" style="stroke:#000000;stroke-width:1.5;"/><line style="stroke:#000000;stroke-width:1.5;" x1="137.1777" x2="200.1777" y1="383.2969" y2="383.2969"/><text fill="#000000" font-family="sans-serif" font-size="14" font-weight="bold" lengthAdjust="spacing" textLength="50" x="141.1777" y="375.9951">Player</text></g><!--cluster Menu--><g id="cluster_Menu"><path d="M1648.6777,253 L1692.6777,253 A3.75,3.75 0 0 1 1695.1777,255.5 L1702.1777,275.2969 L1899.6777,275.2969 A2.5,2.5 0 0 1 1902.1777,277.7969 L1902.1777,457.5 A2.5,2.5 0 0 1 1899.6777,460 L1648.6777,460 A2.5,2.5 0 0 1 1646.1777,457.5 L1646.1777,255.5 A2.5,2.5 0 0 1 1648.6777,253 " fill="none" style="stroke:#000000;stroke-width:1.5;"/><line style="stroke:#000000;stroke-width:1.5;" x1="1646.1777" x2="1702.1777" y1="275.2969" y2="275.2969"/><text fill="#000000" font-family="sans-serif" font-size="14" font-weight="bold" lengthAdjust="spacing" textLength="43" x="1650.1777" y="267.9951">Menu</text></g><!--class Card--><g id="elem_Card"><rect fill="#F1F1F1" height="48" id="Card" rx="2.5" ry="2.5" style="stroke:#181818;stroke-width:0.5;" width="65" x="691.6777" y="890"/><ellipse cx="706.6777" cy="906" fill="#ADD1B2" rx="11" ry="11" style="stroke:#181818;stroke-width:1.0;"/><path d="M709.0215,901.6719 C708.084,901.2344 707.4902,901.0938 706.6152,901.0938 C703.9902,901.0938 701.9902,903.1719 701.9902,905.8906 L701.9902,907.0156 C701.9902,909.5938 704.0996,911.4844 706.9902,911.4844 C708.209,911.4844 709.3652,911.1875 710.1152,910.6406 C710.6933,910.2344 711.0215,909.7813 711.0215,909.3906 C711.0215,908.9375 710.6308,908.5469 710.1621,908.5469 C709.9433,908.5469 709.7402,908.625 709.5527,908.8125 C709.0996,909.2969 709.0996,909.2969 708.9121,909.3906 C708.4902,909.6563 707.8027,909.7813 707.0371,909.7813 C704.9902,909.7813 703.6933,908.6875 703.6933,906.9844 L703.6933,905.8906 C703.6933,904.1094 704.9433,902.7969 706.6777,902.7969 C707.2558,902.7969 707.8652,902.9531 708.334,903.2031 C708.8183,903.4844 708.9902,903.7031 709.084,904.1094 C709.1465,904.5156 709.1777,904.6406 709.3183,904.7656 C709.459,904.9063 709.6933,905.0156 709.9121,905.0156 C710.1777,905.0156 710.4433,904.875 710.6152,904.6563 C710.7246,904.5 710.7558,904.3125 710.7558,903.8906 L710.7558,902.4688 C710.7558,902.0313 710.7402,901.9063 710.6465,901.75 C710.4902,901.4844 710.209,901.3438 709.9121,901.3438 C709.6152,901.3438 709.4121,901.4375 709.1933,901.75 L709.0215,901.6719 Z " fill="#000000"/><text fill="#000000" font-family="sans-serif" font-size="14" lengthAdjust="spacing" textLength="33" x="720.6777" y="910.8467">Card</text><line style="stroke:#181818;stroke-width:0.5;" x1="692.6777" x2="755.6777" y1="922" y2="922"/><line style="stroke:#181818;stroke-width:0.5;" x1="692.6777" x2="755.6777" y1="930" y2="930"/></g><!--class EnumGemmes--><g id="elem_EnumGemmes"><rect fill="#F1F1F1" height="48" id="EnumGemmes" rx="2.5" ry="2.5" style="stroke:#181818;stroke-width:0.5;" width="136" x="520.1777" y="890"/><ellipse cx="535.1777" cy="906" fill="#ADD1B2" rx="11" ry="11" style="stroke:#181818;stroke-width:1.0;"/><path d="M537.5215,901.6719 C536.584,901.2344 535.9902,901.0938 535.1152,901.0938 C532.4902,901.0938 530.4902,903.1719 530.4902,905.8906 L530.4902,907.0156 C530.4902,909.5938 532.5996,911.4844 535.4902,911.4844 C536.709,911.4844 537.8652,911.1875 538.6152,910.6406 C539.1933,910.2344 539.5215,909.7813 539.5215,909.3906 C539.5215,908.9375 539.1308,908.5469 538.6621,908.5469 C538.4433,908.5469 538.2402,908.625 538.0527,908.8125 C537.5996,909.2969 537.5996,909.2969 537.4121,909.3906 C536.9902,909.6563 536.3027,909.7813 535.5371,909.7813 C533.4902,909.7813 532.1933,908.6875 532.1933,906.9844 L532.1933,905.8906 C532.1933,904.1094 533.4433,902.7969 535.1777,902.7969 C535.7558,902.7969 536.3652,902.9531 536.834,903.2031 C537.3183,903.4844 537.4902,903.7031 537.584,904.1094 C537.6465,904.5156 537.6777,904.6406 537.8183,904.7656 C537.959,904.9063 538.1933,905.0156 538.4121,905.0156 C538.6777,905.0156 538.9433,904.875 539.1152,904.6563 C539.2246,904.5 539.2558,904.3125 539.2558,903.8906 L539.2558,902.4688 C539.2558,902.0313 539.2402,901.9063 539.1465,901.75 C538.9902,901.4844 538.709,901.3438 538.4121,901.3438 C538.1152,901.3438 537.9121,901.4375 537.6933,901.75 L537.5215,901.6719 Z " fill="#000000"/><text fill="#000000" font-family="sans-serif" font-size="14" lengthAdjust="spacing" textLength="104" x="549.1777" y="910.8467">EnumGemmes</text><line style="stroke:#181818;stroke-width:0.5;" x1="521.1777" x2="655.1777" y1="922" y2="922"/><line style="stroke:#181818;stroke-width:0.5;" x1="521.1777" x2="655.1777" y1="930" y2="930"/></g><!--class Player--><g id="elem_Player"><rect fill="#F1F1F1" height="48" id="Player" rx="2.5" ry="2.5" style="stroke:#181818;stroke-width:0.5;" width="76" x="409.1777" y="890"/><ellipse cx="424.1777" cy="906" fill="#ADD1B2" rx="11" ry="11" style="stroke:#181818;stroke-width:1.0;"/><path d="M426.5215,901.6719 C425.584,901.2344 424.9902,901.0938 424.1152,901.0938 C421.4902,901.0938 419.4902,903.1719 419.4902,905.8906 L419.4902,907.0156 C419.4902,909.5938 421.5996,911.4844 424.4902,911.4844 C425.709,911.4844 426.8652,911.1875 427.6152,910.6406 C428.1933,910.2344 428.5215,909.7813 428.5215,909.3906 C428.5215,908.9375 428.1308,908.5469 427.6621,908.5469 C427.4433,908.5469 427.2402,908.625 427.0527,908.8125 C426.5996,909.2969 426.5996,909.2969 426.4121,909.3906 C425.9902,909.6563 425.3027,909.7813 424.5371,909.7813 C422.4902,909.7813 421.1933,908.6875 421.1933,906.9844 L421.1933,905.8906 C421.1933,904.1094 422.4433,902.7969 424.1777,902.7969 C424.7558,902.7969 425.3652,902.9531 425.834,903.2031 C426.3183,903.4844 426.4902,903.7031 426.584,904.1094 C426.6465,904.5156 426.6777,904.6406 426.8183,904.7656 C426.959,904.9063 427.1933,905.0156 427.4121,905.0156 C427.6777,905.0156 427.9433,904.875 428.1152,904.6563 C428.2246,904.5 428.2558,904.3125 428.2558,903.8906 L428.2558,902.4688 C428.2558,902.0313 428.2402,901.9063 428.1465,901.75 C427.9902,901.4844 427.709,901.3438 427.4121,901.3438 C427.1152,901.3438 426.9121,901.4375 426.6933,901.75 L426.5215,901.6719 Z " fill="#000000"/><text fill="#000000" font-family="sans-serif" font-size="14" lengthAdjust="spacing" textLength="44" x="438.1777" y="910.8467">Player</text><line style="stroke:#181818;stroke-width:0.5;" x1="410.1777" x2="484.1777" y1="922" y2="922"/><line style="stroke:#181818;stroke-width:0.5;" x1="410.1777" x2="484.1777" y1="930" y2="930"/></g><!--class Image--><g id="elem_Image"><rect codeLine="5" fill="#F1F1F1" height="48" id="Image" rx="2.5" ry="2.5" style="stroke:#181818;stroke-width:0.5;" width="76" x="629.1777" y="106"/><ellipse cx="644.1777" cy="122" fill="#ADD1B2" rx="11" ry="11" style="stroke:#181818;stroke-width:1.0;"/><path d="M646.5215,117.6719 C645.584,117.2344 644.9902,117.0938 644.1152,117.0938 C641.4902,117.0938 639.4902,119.1719 639.4902,121.8906 L639.4902,123.0156 C639.4902,125.5938 641.5996,127.4844 644.4902,127.4844 C645.709,127.4844 646.8652,127.1875 647.6152,126.6406 C648.1933,126.2344 648.5215,125.7813 648.5215,125.3906 C648.5215,124.9375 648.1308,124.5469 647.6621,124.5469 C647.4433,124.5469 647.2402,124.625 647.0527,124.8125 C646.5996,125.2969 646.5996,125.2969 646.4121,125.3906 C645.9902,125.6563 645.3027,125.7813 644.5371,125.7813 C642.4902,125.7813 641.1933,124.6875 641.1933,122.9844 L641.1933,121.8906 C641.1933,120.1094 642.4433,118.7969 644.1777,118.7969 C644.7558,118.7969 645.3652,118.9531 645.834,119.2031 C646.3183,119.4844 646.4902,119.7031 646.584,120.1094 C646.6465,120.5156 646.6777,120.6406 646.8183,120.7656 C646.959,120.9063 647.1933,121.0156 647.4121,121.0156 C647.6777,121.0156 647.9433,120.875 648.1152,120.6563 C648.2246,120.5 648.2558,120.3125 648.2558,119.8906 L648.2558,118.4688 C648.2558,118.0313 648.2402,117.9063 648.1465,117.75 C647.9902,117.4844 647.709,117.3438 647.4121,117.3438 C647.1152,117.3438 646.9121,117.4375 646.6933,117.75 L646.5215,117.6719 Z " fill="#000000"/><text fill="#000000" font-family="sans-serif" font-size="14" lengthAdjust="spacing" textLength="44" x="658.1777" y="126.8467">Image</text><line style="stroke:#181818;stroke-width:0.5;" x1="630.1777" x2="704.1777" y1="138" y2="138"/><line style="stroke:#181818;stroke-width:0.5;" x1="630.1777" x2="704.1777" y1="146" y2="146"/></g><!--class BackgroundWidgetUI--><g id="elem_BackgroundWidgetUI"><rect codeLine="13" fill="#F1F1F1" height="48" id="BackgroundWidgetUI" rx="2.5" ry="2.5" style="stroke:#181818;stroke-width:0.5;" width="182" x="1918.1777" y="396"/><ellipse cx="1933.1777" cy="412" fill="#ADD1B2" rx="11" ry="11" style="stroke:#181818;stroke-width:1.0;"/><path d="M1935.5215,407.6719 C1934.584,407.2344 1933.9902,407.0938 1933.1152,407.0938 C1930.4902,407.0938 1928.4902,409.1719 1928.4902,411.8906 L1928.4902,413.0156 C1928.4902,415.5938 1930.5996,417.4844 1933.4902,417.4844 C1934.709,417.4844 1935.8652,417.1875 1936.6152,416.6406 C1937.1933,416.2344 1937.5215,415.7813 1937.5215,415.3906 C1937.5215,414.9375 1937.1308,414.5469 1936.6621,414.5469 C1936.4433,414.5469 1936.2402,414.625 1936.0527,414.8125 C1935.5996,415.2969 1935.5996,415.2969 1935.4121,415.3906 C1934.9902,415.6563 1934.3027,415.7813 1933.5371,415.7813 C1931.4902,415.7813 1930.1933,414.6875 1930.1933,412.9844 L1930.1933,411.8906 C1930.1933,410.1094 1931.4433,408.7969 1933.1777,408.7969 C1933.7558,408.7969 1934.3652,408.9531 1934.834,409.2031 C1935.3183,409.4844 1935.4902,409.7031 1935.584,410.1094 C1935.6465,410.5156 1935.6777,410.6406 1935.8183,410.7656 C1935.959,410.9063 1936.1933,411.0156 1936.4121,411.0156 C1936.6777,411.0156 1936.9433,410.875 1937.1152,410.6563 C1937.2246,410.5 1937.2558,410.3125 1937.2558,409.8906 L1937.2558,408.4688 C1937.2558,408.0313 1937.2402,407.9063 1937.1465,407.75 C1936.9902,407.4844 1936.709,407.3438 1936.4121,407.3438 C1936.1152,407.3438 1935.9121,407.4375 1935.6933,407.75 L1935.5215,407.6719 Z " fill="#000000"/><text fill="#000000" font-family="sans-serif" font-size="14" lengthAdjust="spacing" textLength="150" x="1947.1777" y="416.8467">BackgroundWidgetUI</text><line style="stroke:#181818;stroke-width:0.5;" x1="1919.1777" x2="2099.1777" y1="428" y2="428"/><line style="stroke:#181818;stroke-width:0.5;" x1="1919.1777" x2="2099.1777" y1="436" y2="436"/></g><!--class CardUI--><g id="elem_CardUI"><rect codeLine="14" fill="#F1F1F1" height="48" id="CardUI" rx="2.5" ry="2.5" style="stroke:#181818;stroke-width:0.5;" width="78" x="685.1777" y="643"/><ellipse cx="700.1777" cy="659" fill="#ADD1B2" rx="11" ry="11" style="stroke:#181818;stroke-width:1.0;"/><path d="M702.5215,654.6719 C701.584,654.2344 700.9902,654.0938 700.1152,654.0938 C697.4902,654.0938 695.4902,656.1719 695.4902,658.8906 L695.4902,660.0156 C695.4902,662.5938 697.5996,664.4844 700.4902,664.4844 C701.709,664.4844 702.8652,664.1875 703.6152,663.6406 C704.1933,663.2344 704.5215,662.7813 704.5215,662.3906 C704.5215,661.9375 704.1308,661.5469 703.6621,661.5469 C703.4433,661.5469 703.2402,661.625 703.0527,661.8125 C702.5996,662.2969 702.5996,662.2969 702.4121,662.3906 C701.9902,662.6563 701.3027,662.7813 700.5371,662.7813 C698.4902,662.7813 697.1933,661.6875 697.1933,659.9844 L697.1933,658.8906 C697.1933,657.1094 698.4433,655.7969 700.1777,655.7969 C700.7558,655.7969 701.3652,655.9531 701.834,656.2031 C702.3183,656.4844 702.4902,656.7031 702.584,657.1094 C702.6465,657.5156 702.6777,657.6406 702.8183,657.7656 C702.959,657.9063 703.1933,658.0156 703.4121,658.0156 C703.6777,658.0156 703.9433,657.875 704.1152,657.6563 C704.2246,657.5 704.2558,657.3125 704.2558,656.8906 L704.2558,655.4688 C704.2558,655.0313 704.2402,654.9063 704.1465,654.75 C703.9902,654.4844 703.709,654.3438 703.4121,654.3438 C703.1152,654.3438 702.9121,654.4375 702.6933,654.75 L702.5215,654.6719 Z " fill="#000000"/><text fill="#000000" font-family="sans-serif" font-size="14" lengthAdjust="spacing" textLength="46" x="714.1777" y="663.8467">CardUI</text><line style="stroke:#181818;stroke-width:0.5;" x1="686.1777" x2="762.1777" y1="675" y2="675"/><line style="stroke:#181818;stroke-width:0.5;" x1="686.1777" x2="762.1777" y1="683" y2="683"/></g><!--class GemmesUI--><g id="elem_GemmesUI"><rect codeLine="15" fill="#F1F1F1" height="48" id="GemmesUI" rx="2.5" ry="2.5" style="stroke:#181818;stroke-width:0.5;" width="109" x="533.6777" y="751"/><ellipse cx="548.6777" cy="767" fill="#ADD1B2" rx="11" ry="11" style="stroke:#181818;stroke-width:1.0;"/><path d="M551.0215,762.6719 C550.084,762.2344 549.4902,762.0938 548.6152,762.0938 C545.9902,762.0938 543.9902,764.1719 543.9902,766.8906 L543.9902,768.0156 C543.9902,770.5938 546.0996,772.4844 548.9902,772.4844 C550.209,772.4844 551.3652,772.1875 552.1152,771.6406 C552.6933,771.2344 553.0215,770.7813 553.0215,770.3906 C553.0215,769.9375 552.6308,769.5469 552.1621,769.5469 C551.9433,769.5469 551.7402,769.625 551.5527,769.8125 C551.0996,770.2969 551.0996,770.2969 550.9121,770.3906 C550.4902,770.6563 549.8027,770.7813 549.0371,770.7813 C546.9902,770.7813 545.6933,769.6875 545.6933,767.9844 L545.6933,766.8906 C545.6933,765.1094 546.9433,763.7969 548.6777,763.7969 C549.2558,763.7969 549.8652,763.9531 550.334,764.2031 C550.8183,764.4844 550.9902,764.7031 551.084,765.1094 C551.1465,765.5156 551.1777,765.6406 551.3183,765.7656 C551.459,765.9063 551.6933,766.0156 551.9121,766.0156 C552.1777,766.0156 552.4433,765.875 552.6152,765.6563 C552.7246,765.5 552.7558,765.3125 552.7558,764.8906 L552.7558,763.4688 C552.7558,763.0313 552.7402,762.9063 552.6465,762.75 C552.4902,762.4844 552.209,762.3438 551.9121,762.3438 C551.6152,762.3438 551.4121,762.4375 551.1933,762.75 L551.0215,762.6719 Z " fill="#000000"/><text fill="#000000" font-family="sans-serif" font-size="14" lengthAdjust="spacing" textLength="77" x="562.6777" y="771.8467">GemmesUI</text><line style="stroke:#181818;stroke-width:0.5;" x1="534.6777" x2="641.6777" y1="783" y2="783"/><line style="stroke:#181818;stroke-width:0.5;" x1="534.6777" x2="641.6777" y1="791" y2="791"/></g><!--class InformationMessageUI--><g id="elem_InformationMessageUI"><rect codeLine="16" fill="#F1F1F1" height="48" id="InformationMessageUI" rx="2.5" ry="2.5" style="stroke:#181818;stroke-width:0.5;" width="191" x="1438.6777" y="396"/><ellipse cx="1453.6777" cy="412" fill="#ADD1B2" rx="11" ry="11" style="stroke:#181818;stroke-width:1.0;"/><path d="M1456.0215,407.6719 C1455.084,407.2344 1454.4902,407.0938 1453.6152,407.0938 C1450.9902,407.0938 1448.9902,409.1719 1448.9902,411.8906 L1448.9902,413.0156 C1448.9902,415.5938 1451.0996,417.4844 1453.9902,417.4844 C1455.209,417.4844 1456.3652,417.1875 1457.1152,416.6406 C1457.6933,416.2344 1458.0215,415.7813 1458.0215,415.3906 C1458.0215,414.9375 1457.6308,414.5469 1457.1621,414.5469 C1456.9433,414.5469 1456.7402,414.625 1456.5527,414.8125 C1456.0996,415.2969 1456.0996,415.2969 1455.9121,415.3906 C1455.4902,415.6563 1454.8027,415.7813 1454.0371,415.7813 C1451.9902,415.7813 1450.6933,414.6875 1450.6933,412.9844 L1450.6933,411.8906 C1450.6933,410.1094 1451.9433,408.7969 1453.6777,408.7969 C1454.2558,408.7969 1454.8652,408.9531 1455.334,409.2031 C1455.8183,409.4844 1455.9902,409.7031 1456.084,410.1094 C1456.1465,410.5156 1456.1777,410.6406 1456.3183,410.7656 C1456.459,410.9063 1456.6933,411.0156 1456.9121,411.0156 C1457.1777,411.0156 1457.4433,410.875 1457.6152,410.6563 C1457.7246,410.5 1457.7558,410.3125 1457.7558,409.8906 L1457.7558,408.4688 C1457.7558,408.0313 1457.7402,407.9063 1457.6465,407.75 C1457.4902,407.4844 1457.209,407.3438 1456.9121,407.3438 C1456.6152,407.3438 1456.4121,407.4375 1456.1933,407.75 L1456.0215,407.6719 Z " fill="#000000"/><text fill="#000000" font-family="sans-serif" font-size="14" lengthAdjust="spacing" textLength="159" x="1467.6777" y="416.8467">InformationMessageUI</text><line style="stroke:#181818;stroke-width:0.5;" x1="1439.6777" x2="1628.6777" y1="428" y2="428"/><line style="stroke:#181818;stroke-width:0.5;" x1="1439.6777" x2="1628.6777" y1="436" y2="436"/></g><!--class PrivilegeBoardUI--><g id="elem_PrivilegeBoardUI"><rect codeLine="17" fill="#F1F1F1" height="48" id="PrivilegeBoardUI" rx="2.5" ry="2.5" style="stroke:#181818;stroke-width:0.5;" width="149" x="1254.6777" y="396"/><ellipse cx="1269.6777" cy="412" fill="#ADD1B2" rx="11" ry="11" style="stroke:#181818;stroke-width:1.0;"/><path d="M1272.0215,407.6719 C1271.084,407.2344 1270.4902,407.0938 1269.6152,407.0938 C1266.9902,407.0938 1264.9902,409.1719 1264.9902,411.8906 L1264.9902,413.0156 C1264.9902,415.5938 1267.0996,417.4844 1269.9902,417.4844 C1271.209,417.4844 1272.3652,417.1875 1273.1152,416.6406 C1273.6933,416.2344 1274.0215,415.7813 1274.0215,415.3906 C1274.0215,414.9375 1273.6308,414.5469 1273.1621,414.5469 C1272.9433,414.5469 1272.7402,414.625 1272.5527,414.8125 C1272.0996,415.2969 1272.0996,415.2969 1271.9121,415.3906 C1271.4902,415.6563 1270.8027,415.7813 1270.0371,415.7813 C1267.9902,415.7813 1266.6933,414.6875 1266.6933,412.9844 L1266.6933,411.8906 C1266.6933,410.1094 1267.9433,408.7969 1269.6777,408.7969 C1270.2558,408.7969 1270.8652,408.9531 1271.334,409.2031 C1271.8183,409.4844 1271.9902,409.7031 1272.084,410.1094 C1272.1465,410.5156 1272.1777,410.6406 1272.3183,410.7656 C1272.459,410.9063 1272.6933,411.0156 1272.9121,411.0156 C1273.1777,411.0156 1273.4433,410.875 1273.6152,410.6563 C1273.7246,410.5 1273.7558,410.3125 1273.7558,409.8906 L1273.7558,408.4688 C1273.7558,408.0313 1273.7402,407.9063 1273.6465,407.75 C1273.4902,407.4844 1273.209,407.3438 1272.9121,407.3438 C1272.6152,407.3438 1272.4121,407.4375 1272.1933,407.75 L1272.0215,407.6719 Z " fill="#000000"/><text fill="#000000" font-family="sans-serif" font-size="14" lengthAdjust="spacing" textLength="117" x="1283.6777" y="416.8467">PrivilegeBoardUI</text><line style="stroke:#181818;stroke-width:0.5;" x1="1255.6777" x2="1402.6777" y1="428" y2="428"/><line style="stroke:#181818;stroke-width:0.5;" x1="1255.6777" x2="1402.6777" y1="436" y2="436"/></g><!--class PrivilegeUI--><g id="elem_PrivilegeUI"><rect codeLine="18" fill="#F1F1F1" height="48" id="PrivilegeUI" rx="2.5" ry="2.5" style="stroke:#181818;stroke-width:0.5;" width="107" x="1426.6777" y="535"/><ellipse cx="1441.6777" cy="551" fill="#ADD1B2" rx="11" ry="11" style="stroke:#181818;stroke-width:1.0;"/><path d="M1444.0215,546.6719 C1443.084,546.2344 1442.4902,546.0938 1441.6152,546.0938 C1438.9902,546.0938 1436.9902,548.1719 1436.9902,550.8906 L1436.9902,552.0156 C1436.9902,554.5938 1439.0996,556.4844 1441.9902,556.4844 C1443.209,556.4844 1444.3652,556.1875 1445.1152,555.6406 C1445.6933,555.2344 1446.0215,554.7813 1446.0215,554.3906 C1446.0215,553.9375 1445.6308,553.5469 1445.1621,553.5469 C1444.9433,553.5469 1444.7402,553.625 1444.5527,553.8125 C1444.0996,554.2969 1444.0996,554.2969 1443.9121,554.3906 C1443.4902,554.6563 1442.8027,554.7813 1442.0371,554.7813 C1439.9902,554.7813 1438.6933,553.6875 1438.6933,551.9844 L1438.6933,550.8906 C1438.6933,549.1094 1439.9433,547.7969 1441.6777,547.7969 C1442.2558,547.7969 1442.8652,547.9531 1443.334,548.2031 C1443.8183,548.4844 1443.9902,548.7031 1444.084,549.1094 C1444.1465,549.5156 1444.1777,549.6406 1444.3183,549.7656 C1444.459,549.9063 1444.6933,550.0156 1444.9121,550.0156 C1445.1777,550.0156 1445.4433,549.875 1445.6152,549.6563 C1445.7246,549.5 1445.7558,549.3125 1445.7558,548.8906 L1445.7558,547.4688 C1445.7558,547.0313 1445.7402,546.9063 1445.6465,546.75 C1445.4902,546.4844 1445.209,546.3438 1444.9121,546.3438 C1444.6152,546.3438 1444.4121,546.4375 1444.1933,546.75 L1444.0215,546.6719 Z " fill="#000000"/><text fill="#000000" font-family="sans-serif" font-size="14" lengthAdjust="spacing" textLength="75" x="1455.6777" y="555.8467">PrivilegeUI</text><line style="stroke:#181818;stroke-width:0.5;" x1="1427.6777" x2="1532.6777" y1="567" y2="567"/><line style="stroke:#181818;stroke-width:0.5;" x1="1427.6777" x2="1532.6777" y1="575" y2="575"/></g><!--class SingletonSplendorDuel--><g id="elem_SingletonSplendorDuel"><rect codeLine="19" fill="#F1F1F1" height="48" id="SingletonSplendorDuel" rx="2.5" ry="2.5" style="stroke:#181818;stroke-width:0.5;" width="198" x="1230.1777" y="288"/><ellipse cx="1245.1777" cy="304" fill="#ADD1B2" rx="11" ry="11" style="stroke:#181818;stroke-width:1.0;"/><path d="M1247.5215,299.6719 C1246.584,299.2344 1245.9902,299.0938 1245.1152,299.0938 C1242.4902,299.0938 1240.4902,301.1719 1240.4902,303.8906 L1240.4902,305.0156 C1240.4902,307.5938 1242.5996,309.4844 1245.4902,309.4844 C1246.709,309.4844 1247.8652,309.1875 1248.6152,308.6406 C1249.1933,308.2344 1249.5215,307.7813 1249.5215,307.3906 C1249.5215,306.9375 1249.1308,306.5469 1248.6621,306.5469 C1248.4433,306.5469 1248.2402,306.625 1248.0527,306.8125 C1247.5996,307.2969 1247.5996,307.2969 1247.4121,307.3906 C1246.9902,307.6563 1246.3027,307.7813 1245.5371,307.7813 C1243.4902,307.7813 1242.1933,306.6875 1242.1933,304.9844 L1242.1933,303.8906 C1242.1933,302.1094 1243.4433,300.7969 1245.1777,300.7969 C1245.7558,300.7969 1246.3652,300.9531 1246.834,301.2031 C1247.3183,301.4844 1247.4902,301.7031 1247.584,302.1094 C1247.6465,302.5156 1247.6777,302.6406 1247.8183,302.7656 C1247.959,302.9063 1248.1933,303.0156 1248.4121,303.0156 C1248.6777,303.0156 1248.9433,302.875 1249.1152,302.6563 C1249.2246,302.5 1249.2558,302.3125 1249.2558,301.8906 L1249.2558,300.4688 C1249.2558,300.0313 1249.2402,299.9063 1249.1465,299.75 C1248.9902,299.4844 1248.709,299.3438 1248.4121,299.3438 C1248.1152,299.3438 1247.9121,299.4375 1247.6933,299.75 L1247.5215,299.6719 Z " fill="#000000"/><text fill="#000000" font-family="sans-serif" font-size="14" lengthAdjust="spacing" textLength="166" x="1259.1777" y="308.8467">SingletonSplendorDuel</text><line style="stroke:#181818;stroke-width:0.5;" x1="1231.1777" x2="1427.1777" y1="320" y2="320"/><line style="stroke:#181818;stroke-width:0.5;" x1="1231.1777" x2="1427.1777" y1="328" y2="328"/></g><!--class CardContainerGUI--><g id="elem_CardContainerGUI"><rect codeLine="20" fill="#F1F1F1" height="48" id="CardContainerGUI" rx="2.5" ry="2.5" style="stroke:#181818;stroke-width:0.5;" width="161" x="1020.6777" y="396"/><ellipse cx="1035.6777" cy="412" fill="#A9DCDF" rx="11" ry="11" style="stroke:#181818;stroke-width:1.0;"/><path d="M1037.7558,413.8125 L1038.1465,414.7969 L1037.7558,414.7969 C1037.3027,414.7969 1037.1933,414.8125 1037.0371,414.9219 C1036.7871,415.0781 1036.6308,415.3594 1036.6308,415.6563 C1036.6308,415.9219 1036.7715,416.1719 1036.9902,416.3281 C1037.1308,416.4531 1037.334,416.5 1037.7558,416.5 L1040.1152,416.5 C1040.4746,416.5 1040.6933,416.4688 1040.834,416.375 C1041.084,416.2344 1041.2402,415.9375 1041.2402,415.6563 C1041.2402,415.375 1041.0996,415.125 1040.8808,414.9688 C1040.709,414.8281 1040.5527,414.7969 1040.084,414.7969 L1036.6933,406.5938 L1033.0215,406.5938 C1032.5683,406.5938 1032.4433,406.6094 1032.2871,406.7031 C1032.0371,406.875 1031.8808,407.1563 1031.8808,407.4375 C1031.8808,407.7188 1032.0215,407.9688 1032.2402,408.1406 C1032.4121,408.25 1032.584,408.2813 1033.0215,408.2813 L1034.0996,408.2813 L1031.459,414.7969 C1031.0371,414.7969 1030.8808,414.8125 1030.7246,414.9219 C1030.4746,415.0781 1030.3183,415.3594 1030.3183,415.6563 C1030.3183,416.2188 1030.6933,416.5 1031.4433,416.5 L1033.709,416.5 C1034.0683,416.5 1034.2871,416.4688 1034.4121,416.375 C1034.6777,416.2344 1034.8183,415.9375 1034.8183,415.6563 C1034.8183,415.375 1034.6933,415.125 1034.4746,414.9531 C1034.3027,414.8281 1034.1621,414.7969 1033.709,414.7969 L1033.3183,414.7969 L1033.709,413.8125 L1037.7558,413.8125 Z M1037.0527,412.1094 L1034.3808,412.1094 L1035.7246,408.8438 L1037.0527,412.1094 Z " fill="#000000"/><text fill="#000000" font-family="sans-serif" font-size="14" font-style="italic" lengthAdjust="spacing" textLength="129" x="1049.6777" y="416.8467">CardContainerGUI</text><line style="stroke:#181818;stroke-width:0.5;" x1="1021.6777" x2="1180.6777" y1="428" y2="428"/><line style="stroke:#181818;stroke-width:0.5;" x1="1021.6777" x2="1180.6777" y1="436" y2="436"/></g><!--class GemmesContainerGUI--><g id="elem_GemmesContainerGUI"><rect codeLine="21" fill="#F1F1F1" height="48" id="GemmesContainerGUI" rx="2.5" ry="2.5" style="stroke:#181818;stroke-width:0.5;" width="191" x="794.6777" y="396"/><ellipse cx="809.6777" cy="412" fill="#A9DCDF" rx="11" ry="11" style="stroke:#181818;stroke-width:1.0;"/><path d="M811.7558,413.8125 L812.1465,414.7969 L811.7558,414.7969 C811.3027,414.7969 811.1933,414.8125 811.0371,414.9219 C810.7871,415.0781 810.6308,415.3594 810.6308,415.6563 C810.6308,415.9219 810.7715,416.1719 810.9902,416.3281 C811.1308,416.4531 811.334,416.5 811.7558,416.5 L814.1152,416.5 C814.4746,416.5 814.6933,416.4688 814.834,416.375 C815.084,416.2344 815.2402,415.9375 815.2402,415.6563 C815.2402,415.375 815.0996,415.125 814.8808,414.9688 C814.709,414.8281 814.5527,414.7969 814.084,414.7969 L810.6933,406.5938 L807.0215,406.5938 C806.5683,406.5938 806.4433,406.6094 806.2871,406.7031 C806.0371,406.875 805.8808,407.1563 805.8808,407.4375 C805.8808,407.7188 806.0215,407.9688 806.2402,408.1406 C806.4121,408.25 806.584,408.2813 807.0215,408.2813 L808.0996,408.2813 L805.459,414.7969 C805.0371,414.7969 804.8808,414.8125 804.7246,414.9219 C804.4746,415.0781 804.3183,415.3594 804.3183,415.6563 C804.3183,416.2188 804.6933,416.5 805.4433,416.5 L807.709,416.5 C808.0683,416.5 808.2871,416.4688 808.4121,416.375 C808.6777,416.2344 808.8183,415.9375 808.8183,415.6563 C808.8183,415.375 808.6933,415.125 808.4746,414.9531 C808.3027,414.8281 808.1621,414.7969 807.709,414.7969 L807.3183,414.7969 L807.709,413.8125 L811.7558,413.8125 Z M811.0527,412.1094 L808.3808,412.1094 L809.7246,408.8438 L811.0527,412.1094 Z " fill="#000000"/><text fill="#000000" font-family="sans-serif" font-size="14" font-style="italic" lengthAdjust="spacing" textLength="159" x="823.6777" y="416.8467">GemmesContainerGUI</text><line style="stroke:#181818;stroke-width:0.5;" x1="795.6777" x2="984.6777" y1="428" y2="428"/><line style="stroke:#181818;stroke-width:0.5;" x1="795.6777" x2="984.6777" y1="436" y2="436"/></g><!--class PLayer--><g id="elem_PLayer"><rect fill="#F1F1F1" height="48" id="PLayer" rx="2.5" ry="2.5" style="stroke:#181818;stroke-width:0.5;" width="80" x="627.1777" y="288"/><ellipse cx="642.1777" cy="304" fill="#ADD1B2" rx="11" ry="11" style="stroke:#181818;stroke-width:1.0;"/><path d="M644.5215,299.6719 C643.584,299.2344 642.9902,299.0938 642.1152,299.0938 C639.4902,299.0938 637.4902,301.1719 637.4902,303.8906 L637.4902,305.0156 C637.4902,307.5938 639.5996,309.4844 642.4902,309.4844 C643.709,309.4844 644.8652,309.1875 645.6152,308.6406 C646.1933,308.2344 646.5215,307.7813 646.5215,307.3906 C646.5215,306.9375 646.1308,306.5469 645.6621,306.5469 C645.4433,306.5469 645.2402,306.625 645.0527,306.8125 C644.5996,307.2969 644.5996,307.2969 644.4121,307.3906 C643.9902,307.6563 643.3027,307.7813 642.5371,307.7813 C640.4902,307.7813 639.1933,306.6875 639.1933,304.9844 L639.1933,303.8906 C639.1933,302.1094 640.4433,300.7969 642.1777,300.7969 C642.7558,300.7969 643.3652,300.9531 643.834,301.2031 C644.3183,301.4844 644.4902,301.7031 644.584,302.1094 C644.6465,302.5156 644.6777,302.6406 644.8183,302.7656 C644.959,302.9063 645.1933,303.0156 645.4121,303.0156 C645.6777,303.0156 645.9433,302.875 646.1152,302.6563 C646.2246,302.5 646.2558,302.3125 646.2558,301.8906 L646.2558,300.4688 C646.2558,300.0313 646.2402,299.9063 646.1465,299.75 C645.9902,299.4844 645.709,299.3438 645.4121,299.3438 C645.1152,299.3438 644.9121,299.4375 644.6933,299.75 L644.5215,299.6719 Z " fill="#000000"/><text fill="#000000" font-family="sans-serif" font-size="14" lengthAdjust="spacing" textLength="48" x="656.1777" y="308.8467">PLayer</text><line style="stroke:#181818;stroke-width:0.5;" x1="628.1777" x2="706.1777" y1="320" y2="320"/><line style="stroke:#181818;stroke-width:0.5;" x1="628.1777" x2="706.1777" y1="328" y2="328"/></g><!--class BoardCardUI--><g id="elem_BoardCardUI"><rect codeLine="24" fill="#F1F1F1" height="48" id="BoardCardUI" rx="2.5" ry="2.5" style="stroke:#181818;stroke-width:0.5;" width="120" x="1041.1777" y="535"/><ellipse cx="1056.1777" cy="551" fill="#ADD1B2" rx="11" ry="11" style="stroke:#181818;stroke-width:1.0;"/><path d="M1058.5215,546.6719 C1057.584,546.2344 1056.9902,546.0938 1056.1152,546.0938 C1053.4902,546.0938 1051.4902,548.1719 1051.4902,550.8906 L1051.4902,552.0156 C1051.4902,554.5938 1053.5996,556.4844 1056.4902,556.4844 C1057.709,556.4844 1058.8652,556.1875 1059.6152,555.6406 C1060.1933,555.2344 1060.5215,554.7813 1060.5215,554.3906 C1060.5215,553.9375 1060.1308,553.5469 1059.6621,553.5469 C1059.4433,553.5469 1059.2402,553.625 1059.0527,553.8125 C1058.5996,554.2969 1058.5996,554.2969 1058.4121,554.3906 C1057.9902,554.6563 1057.3027,554.7813 1056.5371,554.7813 C1054.4902,554.7813 1053.1933,553.6875 1053.1933,551.9844 L1053.1933,550.8906 C1053.1933,549.1094 1054.4433,547.7969 1056.1777,547.7969 C1056.7558,547.7969 1057.3652,547.9531 1057.834,548.2031 C1058.3183,548.4844 1058.4902,548.7031 1058.584,549.1094 C1058.6465,549.5156 1058.6777,549.6406 1058.8183,549.7656 C1058.959,549.9063 1059.1933,550.0156 1059.4121,550.0156 C1059.6777,550.0156 1059.9433,549.875 1060.1152,549.6563 C1060.2246,549.5 1060.2558,549.3125 1060.2558,548.8906 L1060.2558,547.4688 C1060.2558,547.0313 1060.2402,546.9063 1060.1465,546.75 C1059.9902,546.4844 1059.709,546.3438 1059.4121,546.3438 C1059.1152,546.3438 1058.9121,546.4375 1058.6933,546.75 L1058.5215,546.6719 Z " fill="#000000"/><text fill="#000000" font-family="sans-serif" font-size="14" lengthAdjust="spacing" textLength="88" x="1070.1777" y="555.8467">BoardCardUI</text><line style="stroke:#181818;stroke-width:0.5;" x1="1042.1777" x2="1160.1777" y1="567" y2="567"/><line style="stroke:#181818;stroke-width:0.5;" x1="1042.1777" x2="1160.1777" y1="575" y2="575"/></g><!--class BoardUI--><g id="elem_BoardUI"><rect codeLine="25" fill="#F1F1F1" height="48" id="BoardUI" rx="2.5" ry="2.5" style="stroke:#181818;stroke-width:0.5;" width="87" x="834.6777" y="643"/><ellipse cx="849.6777" cy="659" fill="#ADD1B2" rx="11" ry="11" style="stroke:#181818;stroke-width:1.0;"/><path d="M852.0215,654.6719 C851.084,654.2344 850.4902,654.0938 849.6152,654.0938 C846.9902,654.0938 844.9902,656.1719 844.9902,658.8906 L844.9902,660.0156 C844.9902,662.5938 847.0996,664.4844 849.9902,664.4844 C851.209,664.4844 852.3652,664.1875 853.1152,663.6406 C853.6933,663.2344 854.0215,662.7813 854.0215,662.3906 C854.0215,661.9375 853.6308,661.5469 853.1621,661.5469 C852.9433,661.5469 852.7402,661.625 852.5527,661.8125 C852.0996,662.2969 852.0996,662.2969 851.9121,662.3906 C851.4902,662.6563 850.8027,662.7813 850.0371,662.7813 C847.9902,662.7813 846.6933,661.6875 846.6933,659.9844 L846.6933,658.8906 C846.6933,657.1094 847.9433,655.7969 849.6777,655.7969 C850.2558,655.7969 850.8652,655.9531 851.334,656.2031 C851.8183,656.4844 851.9902,656.7031 852.084,657.1094 C852.1465,657.5156 852.1777,657.6406 852.3183,657.7656 C852.459,657.9063 852.6933,658.0156 852.9121,658.0156 C853.1777,658.0156 853.4433,657.875 853.6152,657.6563 C853.7246,657.5 853.7558,657.3125 853.7558,656.8906 L853.7558,655.4688 C853.7558,655.0313 853.7402,654.9063 853.6465,654.75 C853.4902,654.4844 853.209,654.3438 852.9121,654.3438 C852.6152,654.3438 852.4121,654.4375 852.1933,654.75 L852.0215,654.6719 Z " fill="#000000"/><text fill="#000000" font-family="sans-serif" font-size="14" lengthAdjust="spacing" textLength="55" x="863.6777" y="663.8467">BoardUI</text><line style="stroke:#181818;stroke-width:0.5;" x1="835.6777" x2="920.6777" y1="675" y2="675"/><line style="stroke:#181818;stroke-width:0.5;" x1="835.6777" x2="920.6777" y1="683" y2="683"/></g><!--class CompleteBoardUI--><g id="elem_CompleteBoardUI"><rect codeLine="26" fill="#F1F1F1" height="48" id="CompleteBoardUI" rx="2.5" ry="2.5" style="stroke:#181818;stroke-width:0.5;" width="159" x="1196.6777" y="535"/><ellipse cx="1211.6777" cy="551" fill="#ADD1B2" rx="11" ry="11" style="stroke:#181818;stroke-width:1.0;"/><path d="M1214.0215,546.6719 C1213.084,546.2344 1212.4902,546.0938 1211.6152,546.0938 C1208.9902,546.0938 1206.9902,548.1719 1206.9902,550.8906 L1206.9902,552.0156 C1206.9902,554.5938 1209.0996,556.4844 1211.9902,556.4844 C1213.209,556.4844 1214.3652,556.1875 1215.1152,555.6406 C1215.6933,555.2344 1216.0215,554.7813 1216.0215,554.3906 C1216.0215,553.9375 1215.6308,553.5469 1215.1621,553.5469 C1214.9433,553.5469 1214.7402,553.625 1214.5527,553.8125 C1214.0996,554.2969 1214.0996,554.2969 1213.9121,554.3906 C1213.4902,554.6563 1212.8027,554.7813 1212.0371,554.7813 C1209.9902,554.7813 1208.6933,553.6875 1208.6933,551.9844 L1208.6933,550.8906 C1208.6933,549.1094 1209.9433,547.7969 1211.6777,547.7969 C1212.2558,547.7969 1212.8652,547.9531 1213.334,548.2031 C1213.8183,548.4844 1213.9902,548.7031 1214.084,549.1094 C1214.1465,549.5156 1214.1777,549.6406 1214.3183,549.7656 C1214.459,549.9063 1214.6933,550.0156 1214.9121,550.0156 C1215.1777,550.0156 1215.4433,549.875 1215.6152,549.6563 C1215.7246,549.5 1215.7558,549.3125 1215.7558,548.8906 L1215.7558,547.4688 C1215.7558,547.0313 1215.7402,546.9063 1215.6465,546.75 C1215.4902,546.4844 1215.209,546.3438 1214.9121,546.3438 C1214.6152,546.3438 1214.4121,546.4375 1214.1933,546.75 L1214.0215,546.6719 Z " fill="#000000"/><text fill="#000000" font-family="sans-serif" font-size="14" lengthAdjust="spacing" textLength="127" x="1225.6777" y="555.8467">CompleteBoardUI</text><line style="stroke:#181818;stroke-width:0.5;" x1="1197.6777" x2="1354.6777" y1="567" y2="567"/><line style="stroke:#181818;stroke-width:0.5;" x1="1197.6777" x2="1354.6777" y1="575" y2="575"/></g><!--class PersonnageBoardUI--><g id="elem_PersonnageBoardUI"><rect codeLine="27" fill="#F1F1F1" height="48" id="PersonnageBoardUI" rx="2.5" ry="2.5" style="stroke:#181818;stroke-width:0.5;" width="171" x="834.6777" y="535"/><ellipse cx="849.6777" cy="551" fill="#ADD1B2" rx="11" ry="11" style="stroke:#181818;stroke-width:1.0;"/><path d="M852.0215,546.6719 C851.084,546.2344 850.4902,546.0938 849.6152,546.0938 C846.9902,546.0938 844.9902,548.1719 844.9902,550.8906 L844.9902,552.0156 C844.9902,554.5938 847.0996,556.4844 849.9902,556.4844 C851.209,556.4844 852.3652,556.1875 853.1152,555.6406 C853.6933,555.2344 854.0215,554.7813 854.0215,554.3906 C854.0215,553.9375 853.6308,553.5469 853.1621,553.5469 C852.9433,553.5469 852.7402,553.625 852.5527,553.8125 C852.0996,554.2969 852.0996,554.2969 851.9121,554.3906 C851.4902,554.6563 850.8027,554.7813 850.0371,554.7813 C847.9902,554.7813 846.6933,553.6875 846.6933,551.9844 L846.6933,550.8906 C846.6933,549.1094 847.9433,547.7969 849.6777,547.7969 C850.2558,547.7969 850.8652,547.9531 851.334,548.2031 C851.8183,548.4844 851.9902,548.7031 852.084,549.1094 C852.1465,549.5156 852.1777,549.6406 852.3183,549.7656 C852.459,549.9063 852.6933,550.0156 852.9121,550.0156 C853.1777,550.0156 853.4433,549.875 853.6152,549.6563 C853.7246,549.5 853.7558,549.3125 853.7558,548.8906 L853.7558,547.4688 C853.7558,547.0313 853.7402,546.9063 853.6465,546.75 C853.4902,546.4844 853.209,546.3438 852.9121,546.3438 C852.6152,546.3438 852.4121,546.4375 852.1933,546.75 L852.0215,546.6719 Z " fill="#000000"/><text fill="#000000" font-family="sans-serif" font-size="14" lengthAdjust="spacing" textLength="139" x="863.6777" y="555.8467">PersonnageBoardUI</text><line style="stroke:#181818;stroke-width:0.5;" x1="835.6777" x2="1004.6777" y1="567" y2="567"/><line style="stroke:#181818;stroke-width:0.5;" x1="835.6777" x2="1004.6777" y1="575" y2="575"/></g><!--class RemplirBoardUI--><g id="elem_RemplirBoardUI"><rect codeLine="28" fill="#F1F1F1" height="48" id="RemplirBoardUI" rx="2.5" ry="2.5" style="stroke:#181818;stroke-width:0.5;" width="144" x="1204.1777" y="643"/><ellipse cx="1219.1777" cy="659" fill="#ADD1B2" rx="11" ry="11" style="stroke:#181818;stroke-width:1.0;"/><path d="M1221.5215,654.6719 C1220.584,654.2344 1219.9902,654.0938 1219.1152,654.0938 C1216.4902,654.0938 1214.4902,656.1719 1214.4902,658.8906 L1214.4902,660.0156 C1214.4902,662.5938 1216.5996,664.4844 1219.4902,664.4844 C1220.709,664.4844 1221.8652,664.1875 1222.6152,663.6406 C1223.1933,663.2344 1223.5215,662.7813 1223.5215,662.3906 C1223.5215,661.9375 1223.1308,661.5469 1222.6621,661.5469 C1222.4433,661.5469 1222.2402,661.625 1222.0527,661.8125 C1221.5996,662.2969 1221.5996,662.2969 1221.4121,662.3906 C1220.9902,662.6563 1220.3027,662.7813 1219.5371,662.7813 C1217.4902,662.7813 1216.1933,661.6875 1216.1933,659.9844 L1216.1933,658.8906 C1216.1933,657.1094 1217.4433,655.7969 1219.1777,655.7969 C1219.7558,655.7969 1220.3652,655.9531 1220.834,656.2031 C1221.3183,656.4844 1221.4902,656.7031 1221.584,657.1094 C1221.6465,657.5156 1221.6777,657.6406 1221.8183,657.7656 C1221.959,657.9063 1222.1933,658.0156 1222.4121,658.0156 C1222.6777,658.0156 1222.9433,657.875 1223.1152,657.6563 C1223.2246,657.5 1223.2558,657.3125 1223.2558,656.8906 L1223.2558,655.4688 C1223.2558,655.0313 1223.2402,654.9063 1223.1465,654.75 C1222.9902,654.4844 1222.709,654.3438 1222.4121,654.3438 C1222.1152,654.3438 1221.9121,654.4375 1221.6933,654.75 L1221.5215,654.6719 Z " fill="#000000"/><text fill="#000000" font-family="sans-serif" font-size="14" lengthAdjust="spacing" textLength="112" x="1233.1777" y="663.8467">RemplirBoardUI</text><line style="stroke:#181818;stroke-width:0.5;" x1="1205.1777" x2="1347.1777" y1="675" y2="675"/><line style="stroke:#181818;stroke-width:0.5;" x1="1205.1777" x2="1347.1777" y1="683" y2="683"/></g><!--class PlayerCardUI--><g id="elem_PlayerCardUI"><rect codeLine="32" fill="#F1F1F1" height="48" id="PlayerCardUI" rx="2.5" ry="2.5" style="stroke:#181818;stroke-width:0.5;" width="122" x="640.1777" y="535"/><ellipse cx="655.1777" cy="551" fill="#ADD1B2" rx="11" ry="11" style="stroke:#181818;stroke-width:1.0;"/><path d="M657.5215,546.6719 C656.584,546.2344 655.9902,546.0938 655.1152,546.0938 C652.4902,546.0938 650.4902,548.1719 650.4902,550.8906 L650.4902,552.0156 C650.4902,554.5938 652.5996,556.4844 655.4902,556.4844 C656.709,556.4844 657.8652,556.1875 658.6152,555.6406 C659.1933,555.2344 659.5215,554.7813 659.5215,554.3906 C659.5215,553.9375 659.1308,553.5469 658.6621,553.5469 C658.4433,553.5469 658.2402,553.625 658.0527,553.8125 C657.5996,554.2969 657.5996,554.2969 657.4121,554.3906 C656.9902,554.6563 656.3027,554.7813 655.5371,554.7813 C653.4902,554.7813 652.1933,553.6875 652.1933,551.9844 L652.1933,550.8906 C652.1933,549.1094 653.4433,547.7969 655.1777,547.7969 C655.7558,547.7969 656.3652,547.9531 656.834,548.2031 C657.3183,548.4844 657.4902,548.7031 657.584,549.1094 C657.6465,549.5156 657.6777,549.6406 657.8183,549.7656 C657.959,549.9063 658.1933,550.0156 658.4121,550.0156 C658.6777,550.0156 658.9433,549.875 659.1152,549.6563 C659.2246,549.5 659.2558,549.3125 659.2558,548.8906 L659.2558,547.4688 C659.2558,547.0313 659.2402,546.9063 659.1465,546.75 C658.9902,546.4844 658.709,546.3438 658.4121,546.3438 C658.1152,546.3438 657.9121,546.4375 657.6933,546.75 L657.5215,546.6719 Z " fill="#000000"/><text fill="#000000" font-family="sans-serif" font-size="14" lengthAdjust="spacing" textLength="90" x="669.1777" y="555.8467">PlayerCardUI</text><line style="stroke:#181818;stroke-width:0.5;" x1="641.1777" x2="761.1777" y1="567" y2="567"/><line style="stroke:#181818;stroke-width:0.5;" x1="641.1777" x2="761.1777" y1="575" y2="575"/></g><!--class PlayerGemsUI--><g id="elem_PlayerGemsUI"><rect codeLine="33" fill="#F1F1F1" height="48" id="PlayerGemsUI" rx="2.5" ry="2.5" style="stroke:#181818;stroke-width:0.5;" width="130" x="318.1777" y="535"/><ellipse cx="333.1777" cy="551" fill="#ADD1B2" rx="11" ry="11" style="stroke:#181818;stroke-width:1.0;"/><path d="M335.5215,546.6719 C334.584,546.2344 333.9902,546.0938 333.1152,546.0938 C330.4902,546.0938 328.4902,548.1719 328.4902,550.8906 L328.4902,552.0156 C328.4902,554.5938 330.5996,556.4844 333.4902,556.4844 C334.709,556.4844 335.8652,556.1875 336.6152,555.6406 C337.1933,555.2344 337.5215,554.7813 337.5215,554.3906 C337.5215,553.9375 337.1308,553.5469 336.6621,553.5469 C336.4433,553.5469 336.2402,553.625 336.0527,553.8125 C335.5996,554.2969 335.5996,554.2969 335.4121,554.3906 C334.9902,554.6563 334.3027,554.7813 333.5371,554.7813 C331.4902,554.7813 330.1933,553.6875 330.1933,551.9844 L330.1933,550.8906 C330.1933,549.1094 331.4433,547.7969 333.1777,547.7969 C333.7558,547.7969 334.3652,547.9531 334.834,548.2031 C335.3183,548.4844 335.4902,548.7031 335.584,549.1094 C335.6465,549.5156 335.6777,549.6406 335.8183,549.7656 C335.959,549.9063 336.1933,550.0156 336.4121,550.0156 C336.6777,550.0156 336.9433,549.875 337.1152,549.6563 C337.2246,549.5 337.2558,549.3125 337.2558,548.8906 L337.2558,547.4688 C337.2558,547.0313 337.2402,546.9063 337.1465,546.75 C336.9902,546.4844 336.709,546.3438 336.4121,546.3438 C336.1152,546.3438 335.9121,546.4375 335.6933,546.75 L335.5215,546.6719 Z " fill="#000000"/><text fill="#000000" font-family="sans-serif" font-size="14" lengthAdjust="spacing" textLength="98" x="347.1777" y="555.8467">PlayerGemsUI</text><line style="stroke:#181818;stroke-width:0.5;" x1="319.1777" x2="447.1777" y1="567" y2="567"/><line style="stroke:#181818;stroke-width:0.5;" x1="319.1777" x2="447.1777" y1="575" y2="575"/></g><!--class PlayerNameUI--><g id="elem_PlayerNameUI"><rect codeLine="34" fill="#F1F1F1" height="48" id="PlayerNameUI" rx="2.5" ry="2.5" style="stroke:#181818;stroke-width:0.5;" width="130" x="153.1777" y="535"/><ellipse cx="168.1777" cy="551" fill="#ADD1B2" rx="11" ry="11" style="stroke:#181818;stroke-width:1.0;"/><path d="M170.5215,546.6719 C169.584,546.2344 168.9902,546.0938 168.1152,546.0938 C165.4902,546.0938 163.4902,548.1719 163.4902,550.8906 L163.4902,552.0156 C163.4902,554.5938 165.5996,556.4844 168.4902,556.4844 C169.709,556.4844 170.8652,556.1875 171.6152,555.6406 C172.1933,555.2344 172.5215,554.7813 172.5215,554.3906 C172.5215,553.9375 172.1308,553.5469 171.6621,553.5469 C171.4433,553.5469 171.2402,553.625 171.0527,553.8125 C170.5996,554.2969 170.5996,554.2969 170.4121,554.3906 C169.9902,554.6563 169.3027,554.7813 168.5371,554.7813 C166.4902,554.7813 165.1933,553.6875 165.1933,551.9844 L165.1933,550.8906 C165.1933,549.1094 166.4433,547.7969 168.1777,547.7969 C168.7558,547.7969 169.3652,547.9531 169.834,548.2031 C170.3183,548.4844 170.4902,548.7031 170.584,549.1094 C170.6465,549.5156 170.6777,549.6406 170.8183,549.7656 C170.959,549.9063 171.1933,550.0156 171.4121,550.0156 C171.6777,550.0156 171.9433,549.875 172.1152,549.6563 C172.2246,549.5 172.2558,549.3125 172.2558,548.8906 L172.2558,547.4688 C172.2558,547.0313 172.2402,546.9063 172.1465,546.75 C171.9902,546.4844 171.709,546.3438 171.4121,546.3438 C171.1152,546.3438 170.9121,546.4375 170.6933,546.75 L170.5215,546.6719 Z " fill="#000000"/><text fill="#000000" font-family="sans-serif" font-size="14" lengthAdjust="spacing" textLength="98" x="182.1777" y="555.8467">PlayerNameUI</text><line style="stroke:#181818;stroke-width:0.5;" x1="154.1777" x2="282.1777" y1="567" y2="567"/><line style="stroke:#181818;stroke-width:0.5;" x1="154.1777" x2="282.1777" y1="575" y2="575"/></g><!--class PlayerPoints--><g id="elem_PlayerPoints"><rect codeLine="35" fill="#F1F1F1" height="48" id="PlayerPoints" rx="2.5" ry="2.5" style="stroke:#181818;stroke-width:0.5;" width="121" x="483.6777" y="535"/><ellipse cx="498.6777" cy="551" fill="#ADD1B2" rx="11" ry="11" style="stroke:#181818;stroke-width:1.0;"/><path d="M501.0215,546.6719 C500.084,546.2344 499.4902,546.0938 498.6152,546.0938 C495.9902,546.0938 493.9902,548.1719 493.9902,550.8906 L493.9902,552.0156 C493.9902,554.5938 496.0996,556.4844 498.9902,556.4844 C500.209,556.4844 501.3652,556.1875 502.1152,555.6406 C502.6933,555.2344 503.0215,554.7813 503.0215,554.3906 C503.0215,553.9375 502.6308,553.5469 502.1621,553.5469 C501.9433,553.5469 501.7402,553.625 501.5527,553.8125 C501.0996,554.2969 501.0996,554.2969 500.9121,554.3906 C500.4902,554.6563 499.8027,554.7813 499.0371,554.7813 C496.9902,554.7813 495.6933,553.6875 495.6933,551.9844 L495.6933,550.8906 C495.6933,549.1094 496.9433,547.7969 498.6777,547.7969 C499.2558,547.7969 499.8652,547.9531 500.334,548.2031 C500.8183,548.4844 500.9902,548.7031 501.084,549.1094 C501.1465,549.5156 501.1777,549.6406 501.3183,549.7656 C501.459,549.9063 501.6933,550.0156 501.9121,550.0156 C502.1777,550.0156 502.4433,549.875 502.6152,549.6563 C502.7246,549.5 502.7558,549.3125 502.7558,548.8906 L502.7558,547.4688 C502.7558,547.0313 502.7402,546.9063 502.6465,546.75 C502.4902,546.4844 502.209,546.3438 501.9121,546.3438 C501.6152,546.3438 501.4121,546.4375 501.1933,546.75 L501.0215,546.6719 Z " fill="#000000"/><text fill="#000000" font-family="sans-serif" font-size="14" lengthAdjust="spacing" textLength="89" x="512.6777" y="555.8467">PlayerPoints</text><line style="stroke:#181818;stroke-width:0.5;" x1="484.6777" x2="603.6777" y1="567" y2="567"/><line style="stroke:#181818;stroke-width:0.5;" x1="484.6777" x2="603.6777" y1="575" y2="575"/></g><!--class PlayerUI--><g id="elem_PlayerUI"><rect codeLine="36" fill="#F1F1F1" height="48" id="PlayerUI" rx="2.5" ry="2.5" style="stroke:#181818;stroke-width:0.5;" width="89" x="499.6777" y="396"/><ellipse cx="514.6777" cy="412" fill="#ADD1B2" rx="11" ry="11" style="stroke:#181818;stroke-width:1.0;"/><path d="M517.0215,407.6719 C516.084,407.2344 515.4902,407.0938 514.6152,407.0938 C511.9902,407.0938 509.9902,409.1719 509.9902,411.8906 L509.9902,413.0156 C509.9902,415.5938 512.0996,417.4844 514.9902,417.4844 C516.209,417.4844 517.3652,417.1875 518.1152,416.6406 C518.6933,416.2344 519.0215,415.7813 519.0215,415.3906 C519.0215,414.9375 518.6308,414.5469 518.1621,414.5469 C517.9433,414.5469 517.7402,414.625 517.5527,414.8125 C517.0996,415.2969 517.0996,415.2969 516.9121,415.3906 C516.4902,415.6563 515.8027,415.7813 515.0371,415.7813 C512.9902,415.7813 511.6933,414.6875 511.6933,412.9844 L511.6933,411.8906 C511.6933,410.1094 512.9433,408.7969 514.6777,408.7969 C515.2558,408.7969 515.8652,408.9531 516.334,409.2031 C516.8183,409.4844 516.9902,409.7031 517.084,410.1094 C517.1465,410.5156 517.1777,410.6406 517.3183,410.7656 C517.459,410.9063 517.6933,411.0156 517.9121,411.0156 C518.1777,411.0156 518.4433,410.875 518.6152,410.6563 C518.7246,410.5 518.7558,410.3125 518.7558,409.8906 L518.7558,408.4688 C518.7558,408.0313 518.7402,407.9063 518.6465,407.75 C518.4902,407.4844 518.209,407.3438 517.9121,407.3438 C517.6152,407.3438 517.4121,407.4375 517.1933,407.75 L517.0215,407.6719 Z " fill="#000000"/><text fill="#000000" font-family="sans-serif" font-size="14" lengthAdjust="spacing" textLength="57" x="528.6777" y="416.8467">PlayerUI</text><line style="stroke:#181818;stroke-width:0.5;" x1="500.6777" x2="587.6777" y1="428" y2="428"/><line style="stroke:#181818;stroke-width:0.5;" x1="500.6777" x2="587.6777" y1="436" y2="436"/></g><!--class ConfirmationPushButtonUI--><g id="elem_ConfirmationPushButtonUI"><rect codeLine="40" fill="#F1F1F1" height="48" id="ConfirmationPushButtonUI" rx="2.5" ry="2.5" style="stroke:#181818;stroke-width:0.5;" width="223" x="1662.6777" y="288"/><ellipse cx="1677.6777" cy="304" fill="#ADD1B2" rx="11" ry="11" style="stroke:#181818;stroke-width:1.0;"/><path d="M1680.0215,299.6719 C1679.084,299.2344 1678.4902,299.0938 1677.6152,299.0938 C1674.9902,299.0938 1672.9902,301.1719 1672.9902,303.8906 L1672.9902,305.0156 C1672.9902,307.5938 1675.0996,309.4844 1677.9902,309.4844 C1679.209,309.4844 1680.3652,309.1875 1681.1152,308.6406 C1681.6933,308.2344 1682.0215,307.7813 1682.0215,307.3906 C1682.0215,306.9375 1681.6308,306.5469 1681.1621,306.5469 C1680.9433,306.5469 1680.7402,306.625 1680.5527,306.8125 C1680.0996,307.2969 1680.0996,307.2969 1679.9121,307.3906 C1679.4902,307.6563 1678.8027,307.7813 1678.0371,307.7813 C1675.9902,307.7813 1674.6933,306.6875 1674.6933,304.9844 L1674.6933,303.8906 C1674.6933,302.1094 1675.9433,300.7969 1677.6777,300.7969 C1678.2558,300.7969 1678.8652,300.9531 1679.334,301.2031 C1679.8183,301.4844 1679.9902,301.7031 1680.084,302.1094 C1680.1465,302.5156 1680.1777,302.6406 1680.3183,302.7656 C1680.459,302.9063 1680.6933,303.0156 1680.9121,303.0156 C1681.1777,303.0156 1681.4433,302.875 1681.6152,302.6563 C1681.7246,302.5 1681.7558,302.3125 1681.7558,301.8906 L1681.7558,300.4688 C1681.7558,300.0313 1681.7402,299.9063 1681.6465,299.75 C1681.4902,299.4844 1681.209,299.3438 1680.9121,299.3438 C1680.6152,299.3438 1680.4121,299.4375 1680.1933,299.75 L1680.0215,299.6719 Z " fill="#000000"/><text fill="#000000" font-family="sans-serif" font-size="14" lengthAdjust="spacing" textLength="191" x="1691.6777" y="308.8467">ConfirmationPushButtonUI</text><line style="stroke:#181818;stroke-width:0.5;" x1="1663.6777" x2="1884.6777" y1="320" y2="320"/><line style="stroke:#181818;stroke-width:0.5;" x1="1663.6777" x2="1884.6777" y1="328" y2="328"/></g><!--class FinPartie--><g id="elem_FinPartie"><rect codeLine="41" fill="#F1F1F1" height="48" id="FinPartie" rx="2.5" ry="2.5" style="stroke:#181818;stroke-width:0.5;" width="96" x="1665.1777" y="396"/><ellipse cx="1680.1777" cy="412" fill="#ADD1B2" rx="11" ry="11" style="stroke:#181818;stroke-width:1.0;"/><path d="M1682.5215,407.6719 C1681.584,407.2344 1680.9902,407.0938 1680.1152,407.0938 C1677.4902,407.0938 1675.4902,409.1719 1675.4902,411.8906 L1675.4902,413.0156 C1675.4902,415.5938 1677.5996,417.4844 1680.4902,417.4844 C1681.709,417.4844 1682.8652,417.1875 1683.6152,416.6406 C1684.1933,416.2344 1684.5215,415.7813 1684.5215,415.3906 C1684.5215,414.9375 1684.1308,414.5469 1683.6621,414.5469 C1683.4433,414.5469 1683.2402,414.625 1683.0527,414.8125 C1682.5996,415.2969 1682.5996,415.2969 1682.4121,415.3906 C1681.9902,415.6563 1681.3027,415.7813 1680.5371,415.7813 C1678.4902,415.7813 1677.1933,414.6875 1677.1933,412.9844 L1677.1933,411.8906 C1677.1933,410.1094 1678.4433,408.7969 1680.1777,408.7969 C1680.7558,408.7969 1681.3652,408.9531 1681.834,409.2031 C1682.3183,409.4844 1682.4902,409.7031 1682.584,410.1094 C1682.6465,410.5156 1682.6777,410.6406 1682.8183,410.7656 C1682.959,410.9063 1683.1933,411.0156 1683.4121,411.0156 C1683.6777,411.0156 1683.9433,410.875 1684.1152,410.6563 C1684.2246,410.5 1684.2558,410.3125 1684.2558,409.8906 L1684.2558,408.4688 C1684.2558,408.0313 1684.2402,407.9063 1684.1465,407.75 C1683.9902,407.4844 1683.709,407.3438 1683.4121,407.3438 C1683.1152,407.3438 1682.9121,407.4375 1682.6933,407.75 L1682.5215,407.6719 Z " fill="#000000"/><text fill="#000000" font-family="sans-serif" font-size="14" lengthAdjust="spacing" textLength="64" x="1694.1777" y="416.8467">FinPartie</text><line style="stroke:#181818;stroke-width:0.5;" x1="1666.1777" x2="1760.1777" y1="428" y2="428"/><line style="stroke:#181818;stroke-width:0.5;" x1="1666.1777" x2="1760.1777" y1="436" y2="436"/></g><!--class MenuUI--><g id="elem_MenuUI"><rect codeLine="42" fill="#F1F1F1" height="48" id="MenuUI" rx="2.5" ry="2.5" style="stroke:#181818;stroke-width:0.5;" width="83" x="1796.6777" y="396"/><ellipse cx="1811.6777" cy="412" fill="#ADD1B2" rx="11" ry="11" style="stroke:#181818;stroke-width:1.0;"/><path d="M1814.0215,407.6719 C1813.084,407.2344 1812.4902,407.0938 1811.6152,407.0938 C1808.9902,407.0938 1806.9902,409.1719 1806.9902,411.8906 L1806.9902,413.0156 C1806.9902,415.5938 1809.0996,417.4844 1811.9902,417.4844 C1813.209,417.4844 1814.3652,417.1875 1815.1152,416.6406 C1815.6933,416.2344 1816.0215,415.7813 1816.0215,415.3906 C1816.0215,414.9375 1815.6308,414.5469 1815.1621,414.5469 C1814.9433,414.5469 1814.7402,414.625 1814.5527,414.8125 C1814.0996,415.2969 1814.0996,415.2969 1813.9121,415.3906 C1813.4902,415.6563 1812.8027,415.7813 1812.0371,415.7813 C1809.9902,415.7813 1808.6933,414.6875 1808.6933,412.9844 L1808.6933,411.8906 C1808.6933,410.1094 1809.9433,408.7969 1811.6777,408.7969 C1812.2558,408.7969 1812.8652,408.9531 1813.334,409.2031 C1813.8183,409.4844 1813.9902,409.7031 1814.084,410.1094 C1814.1465,410.5156 1814.1777,410.6406 1814.3183,410.7656 C1814.459,410.9063 1814.6933,411.0156 1814.9121,411.0156 C1815.1777,411.0156 1815.4433,410.875 1815.6152,410.6563 C1815.7246,410.5 1815.7558,410.3125 1815.7558,409.8906 L1815.7558,408.4688 C1815.7558,408.0313 1815.7402,407.9063 1815.6465,407.75 C1815.4902,407.4844 1815.209,407.3438 1814.9121,407.3438 C1814.6152,407.3438 1814.4121,407.4375 1814.1933,407.75 L1814.0215,407.6719 Z " fill="#000000"/><text fill="#000000" font-family="sans-serif" font-size="14" lengthAdjust="spacing" textLength="51" x="1825.6777" y="416.8467">MenuUI</text><line style="stroke:#181818;stroke-width:0.5;" x1="1797.6777" x2="1878.6777" y1="428" y2="428"/><line style="stroke:#181818;stroke-width:0.5;" x1="1797.6777" x2="1878.6777" y1="436" y2="436"/></g><g id="elem_note_image"><path d="M517.6777,6 L517.6777,46.2656 A0,0 0 0 0 517.6777,46.2656 L663.1777,46.2656 L667.1777,105.972 L671.1777,46.2656 L816.6777,46.2656 A0,0 0 0 0 816.6777,46.2656 L816.6777,16 L806.6777,6 L517.6777,6 A0,0 0 0 0 517.6777,6 " fill="#FEFFDD" style="stroke:#181818;stroke-width:0.5;"/><path d="M806.6777,6 L806.6777,16 L816.6777,16 L806.6777,6 " fill="#FEFFDD" style="stroke:#181818;stroke-width:0.5;"/><text fill="#000000" font-family="sans-serif" font-size="13" lengthAdjust="spacing" textLength="274" x="523.6777" y="23.0669">A trop de d&#233;pendances pour tout afficher :</text><text fill="#000000" font-family="sans-serif" font-size="13" lengthAdjust="spacing" textLength="247" x="523.6777" y="38.1997">On relie donc aux packages concern&#233;s</text></g><!--reverse link CardUI to Card--><g id="link_CardUI_Card"><path codeLine="46" d="M724.1777,703.049 C724.1777,749.744 724.1777,843.041 724.1777,889.8338 " fill="none" id="CardUI-backto-Card" style="stroke:#181818;stroke-width:1.0;"/><polygon fill="none" points="724.1777,691.049,720.1777,697.049,724.1777,703.049,728.1777,697.049,724.1777,691.049" style="stroke:#181818;stroke-width:1.0;"/><text fill="#000000" font-family="sans-serif" font-size="13" lengthAdjust="spacing" textLength="7" x="716.2808" y="878.8032">*</text></g><!--reverse link GemmesUI to EnumGemmes--><g id="link_GemmesUI_EnumGemmes"><path codeLine="48" d="M588.1777,811.24 C588.1777,836.433 588.1777,864.409 588.1777,889.6458 " fill="none" id="GemmesUI-backto-EnumGemmes" style="stroke:#181818;stroke-width:1.0;"/><polygon fill="none" points="588.1777,799.24,584.1777,805.24,588.1777,811.24,592.1777,805.24,588.1777,799.24" style="stroke:#181818;stroke-width:1.0;"/><text fill="#000000" font-family="sans-serif" font-size="13" lengthAdjust="spacing" textLength="8" x="579.2027" y="878.9644">1</text></g><!--reverse link PrivilegeBoardUI to PrivilegeUI--><g id="link_PrivilegeBoardUI_PrivilegeUI"><path codeLine="50" d="M1375.3315,450.7674 C1388.9515,460.0564 1394.3177,464.524 1407.1777,476 C1427.5077,494.151 1447.9077,517.61 1461.9477,534.784 " fill="none" id="PrivilegeBoardUI-backto-PrivilegeUI" style="stroke:#181818;stroke-width:1.0;"/><polygon fill="#181818" points="1365.4177,444.006,1368.1208,450.6913,1375.3315,450.7674,1372.6284,444.0821,1365.4177,444.006" style="stroke:#181818;stroke-width:1.0;"/><text fill="#000000" font-family="sans-serif" font-size="13" lengthAdjust="spacing" textLength="7" x="1449.3794" y="523.7407">*</text></g><!--reverse link SingletonSplendorDuel to CompleteBoardUI--><g id="link_SingletonSplendorDuel_CompleteBoardUI"><path codeLine="52" d="M1244.1142,343.0267 C1237.5842,347.6787 1241.5677,346.3 1237.1777,353 C1199.6377,410.262 1238.7877,494.71 1261.8477,534.991 " fill="none" id="SingletonSplendorDuel-backto-CompleteBoardUI" style="stroke:#181818;stroke-width:1.0;"/><polygon fill="#181818" points="1253.8877,336.064,1246.6801,336.2875,1244.1142,343.0267,1251.3218,342.8032,1253.8877,336.064" style="stroke:#181818;stroke-width:1.0;"/><text fill="#000000" font-family="sans-serif" font-size="13" lengthAdjust="spacing" textLength="8" x="1249.1506" y="524.0007">1</text></g><!--reverse link SingletonSplendorDuel to PlayerUI--><g id="link_SingletonSplendorDuel_PlayerUI"><path codeLine="53" d="M1218.1343,316.5248 C1023.5323,322.9788 619.7047,338.03 592.1777,353 C575.0017,362.341 562.3947,380.79 554.4227,395.813 " fill="none" id="SingletonSplendorDuel-backto-PlayerUI" style="stroke:#181818;stroke-width:1.0;"/><polygon fill="#181818" points="1230.1277,316.127,1223.9984,312.3281,1218.1343,316.5248,1224.2636,320.3237,1230.1277,316.127" style="stroke:#181818;stroke-width:1.0;"/><text fill="#000000" font-family="sans-serif" font-size="13" lengthAdjust="spacing" textLength="8" x="548.023" y="384.7771">2</text></g><!--reverse link SingletonSplendorDuel to PrivilegeBoardUI--><g id="link_SingletonSplendorDuel_PrivilegeBoardUI"><path codeLine="54" d="M1329.1777,348 C1329.1777,365.658 1329.1777,377.941 1329.1777,395.678 " fill="none" id="SingletonSplendorDuel-backto-PrivilegeBoardUI" style="stroke:#181818;stroke-width:1.0;"/><polygon fill="#181818" points="1329.1777,336,1325.1777,342,1329.1777,348,1333.1777,342,1329.1777,336" style="stroke:#181818;stroke-width:1.0;"/><text fill="#000000" font-family="sans-serif" font-size="13" lengthAdjust="spacing" textLength="8" x="1320.2027" y="385.0045">1</text></g><!--reverse link SingletonSplendorDuel to InformationMessageUI--><g id="link_SingletonSplendorDuel_InformationMessageUI"><path codeLine="55" d="M1396.1067,340.9097 C1408.1267,346.2127 1409.6877,347.17 1421.1777,353 C1447.1177,366.154 1475.3677,382.654 1497.1277,395.866 " fill="none" id="SingletonSplendorDuel-backto-InformationMessageUI" style="stroke:#181818;stroke-width:1.0;"/><polygon fill="#181818" points="1385.1277,336.066,1389.0026,342.1475,1396.1067,340.9097,1392.2318,334.8282,1385.1277,336.066" style="stroke:#181818;stroke-width:1.0;"/><text fill="#000000" font-family="sans-serif" font-size="13" lengthAdjust="spacing" textLength="8" x="1478.6086" y="384.8437">1</text></g><!--link SingletonSplendorDuel to FinPartie--><g id="link_SingletonSplendorDuel_FinPartie"><path codeLine="56" d="M1428.3577,316.654 C1511.4277,321.213 1622.4577,331.253 1661.1777,353 C1678.6077,362.786 1689.1682,375.8626 1698.1082,390.6806 " fill="none" id="SingletonSplendorDuel-to-FinPartie" style="stroke:#181818;stroke-width:1.0;stroke-dasharray:7.0,7.0;"/><polygon fill="#181818" points="1701.2077,395.818,1699.9834,386.0455,1698.6248,391.5368,1693.1335,390.1782,1701.2077,395.818" style="stroke:#181818;stroke-width:1.0;"/><text fill="#000000" font-family="sans-serif" font-size="13" lengthAdjust="spacing" textLength="8" x="1689.1154" y="384.7834">1</text></g><!--reverse link ConfirmationPushButtonUI to FinPartie--><g id="link_ConfirmationPushButtonUI_FinPartie"><path codeLine="58" d="M1757.9454,341.2006 C1747.7854,358.8586 1736.8077,377.941 1726.5977,395.678 " fill="none" id="ConfirmationPushButtonUI-backto-FinPartie" style="stroke:#181818;stroke-width:1.0;stroke-dasharray:7.0,7.0;"/><polygon fill="#181818" points="1760.9377,336,1752.9822,341.806,1758.4441,340.3338,1759.9163,345.7958,1760.9377,336" style="stroke:#181818;stroke-width:1.0;"/></g><!--reverse link ConfirmationPushButtonUI to MenuUI--><g id="link_ConfirmationPushButtonUI_MenuUI"><path codeLine="59" d="M1791.1686,341.1366 C1801.8286,358.7946 1813.3877,377.941 1824.0977,395.678 " fill="none" id="ConfirmationPushButtonUI-backto-MenuUI" style="stroke:#181818;stroke-width:1.0;stroke-dasharray:7.0,7.0;"/><polygon fill="#181818" points="1788.0677,336,1789.2947,345.7721,1790.6518,340.2805,1796.1434,341.6376,1788.0677,336" style="stroke:#181818;stroke-width:1.0;"/></g><!--reverse link CardContainerGUI to BoardCardUI--><g id="link_CardContainerGUI_BoardCardUI"><path codeLine="61" d="M1101.1777,462.24 C1101.1777,487.433 1101.1777,509.409 1101.1777,534.646 " fill="none" id="CardContainerGUI-backto-BoardCardUI" style="stroke:#181818;stroke-width:1.0;"/><polygon fill="none" points="1101.1777,444.24,1095.1777,462.24,1107.1777,462.24,1101.1777,444.24" style="stroke:#181818;stroke-width:1.0;"/></g><!--reverse link CardContainerGUI to PlayerCardUI--><g id="link_CardContainerGUI_PlayerCardUI"><path codeLine="62" d="M1046.5732,452.4031 C1029.0742,461.6211 1023.6797,462.87 1003.1777,468 C963.2587,477.989 857.1437,462.773 818.1777,476 C782.2407,488.199 747.4687,515.106 725.3047,534.783 " fill="none" id="CardContainerGUI-backto-PlayerCardUI" style="stroke:#181818;stroke-width:1.0;"/><polygon fill="none" points="1062.4987,444.014,1043.7768,447.0946,1049.3696,457.7116,1062.4987,444.014" style="stroke:#181818;stroke-width:1.0;"/></g><!--reverse link CardContainerGUI to PersonnageBoardUI--><g id="link_CardContainerGUI_PersonnageBoardUI"><path codeLine="63" d="M1052.709,454.4329 C1038.856,464.1029 1037.4967,465.266 1023.1777,476 C997.3907,495.331 968.7637,518.243 948.2477,534.927 " fill="none" id="CardContainerGUI-backto-PersonnageBoardUI" style="stroke:#181818;stroke-width:1.0;"/><polygon fill="none" points="1067.4687,444.13,1049.2747,449.513,1056.1433,459.3528,1067.4687,444.13" style="stroke:#181818;stroke-width:1.0;"/></g><!--reverse link CardContainerGUI to PlayerPoints--><g id="link_CardContainerGUI_PlayerPoints"><path codeLine="64" d="M1046.6436,452.6521 C1029.1546,461.9111 1023.7347,463.098 1003.1777,468 C961.9897,477.822 660.9147,458.901 622.1777,476 C594.6767,488.14 572.1867,515.058 558.5417,534.754 " fill="none" id="CardContainerGUI-backto-PlayerPoints" style="stroke:#181818;stroke-width:1.0;"/><polygon fill="none" points="1062.5517,444.23,1043.8362,447.3493,1049.4509,457.9548,1062.5517,444.23" style="stroke:#181818;stroke-width:1.0;"/></g><!--reverse link GemmesContainerGUI to BoardUI--><g id="link_GemmesContainerGUI_BoardUI"><path codeLine="66" d="M831.3924,454.8658 C819.9174,463.2278 823.5507,463.219 817.1777,476 C791.1967,528.104 794.4497,553.397 817.1777,607 C823.1017,620.971 834.1337,633.251 845.2037,642.939 " fill="none" id="GemmesContainerGUI-backto-BoardUI" style="stroke:#181818;stroke-width:1.0;"/><polygon fill="none" points="845.9397,444.265,827.8588,450.0167,834.926,459.7149,845.9397,444.265" style="stroke:#181818;stroke-width:1.0;"/></g><!--reverse link GemmesContainerGUI to PlayerGemsUI--><g id="link_GemmesContainerGUI_PlayerGemsUI"><path codeLine="67" d="M829.5783,451.601 C809.4693,460.888 801.3727,463.02 778.1777,468 C744.2727,475.279 498.0847,462.416 466.1777,476 C437.6627,488.14 413.5847,515.058 398.8257,534.755 " fill="none" id="GemmesContainerGUI-backto-PlayerGemsUI" style="stroke:#181818;stroke-width:1.0;"/><polygon fill="none" points="845.9197,444.054,827.0626,446.1539,832.0939,457.0482,845.9197,444.054" style="stroke:#181818;stroke-width:1.0;"/></g><!--reverse link BoardCardUI to CardUI--><g id="link_BoardCardUI_CardUI"><path codeLine="70" d="M1058.6704,589.6901 C1045.1504,598.3721 1039.0217,601.071 1023.1777,607 C936.5397,639.42 908.7097,623.997 818.1777,643 C800.0907,646.797 780.1917,651.577 763.3777,655.795 " fill="none" id="BoardCardUI-backto-CardUI" style="stroke:#181818;stroke-width:1.0;"/><polygon fill="#181818" points="1068.7677,583.206,1061.5577,583.0823,1058.6704,589.6901,1065.8804,589.8138,1068.7677,583.206" style="stroke:#181818;stroke-width:1.0;"/><text fill="#000000" font-family="sans-serif" font-size="13" lengthAdjust="spacing" textLength="24" x="771.2177" y="650.0079">0..5</text></g><!--reverse link BoardUI to GemmesUI--><g id="link_BoardUI_GemmesUI"><path codeLine="72" d="M860.2275,701.3523 C851.9675,715.1363 845.7897,721.476 830.1777,731 C799.4867,749.723 704.3557,762.428 642.9097,768.926 " fill="none" id="BoardUI-backto-GemmesUI" style="stroke:#181818;stroke-width:1.0;"/><polygon fill="#181818" points="866.3957,691.059,859.8805,694.1496,860.2275,701.3523,866.7427,698.2617,866.3957,691.059" style="stroke:#181818;stroke-width:1.0;"/><text fill="#000000" font-family="sans-serif" font-size="13" lengthAdjust="spacing" textLength="32" x="650.646" y="764.5155">0..25</text></g><!--reverse link CompleteBoardUI to BoardUI--><g id="link_CompleteBoardUI_BoardUI"><path codeLine="74" d="M1223.498,588.3983 C1206.508,596.9463 1197.1577,600.695 1178.1777,607 C1089.5177,636.449 980.9687,653.292 921.7837,660.943 " fill="none" id="CompleteBoardUI-backto-BoardUI" style="stroke:#181818;stroke-width:1.0;"/><polygon fill="#181818" points="1234.2177,583.005,1227.0601,582.1284,1223.498,588.3983,1230.6556,589.2749,1234.2177,583.005" style="stroke:#181818;stroke-width:1.0;"/><text fill="#000000" font-family="sans-serif" font-size="13" lengthAdjust="spacing" textLength="8" x="929.6684" y="655.7755">1</text></g><!--reverse link CompleteBoardUI to RemplirBoardUI--><g id="link_CompleteBoardUI_RemplirBoardUI"><path codeLine="75" d="M1276.1777,595 C1276.1777,612.658 1276.1777,624.941 1276.1777,642.678 " fill="none" id="CompleteBoardUI-backto-RemplirBoardUI" style="stroke:#181818;stroke-width:1.0;"/><polygon fill="#181818" points="1276.1777,583,1272.1777,589,1276.1777,595,1280.1777,589,1276.1777,583" style="stroke:#181818;stroke-width:1.0;"/><text fill="#000000" font-family="sans-serif" font-size="13" lengthAdjust="spacing" textLength="8" x="1267.2027" y="632.0045">1</text></g><!--reverse link PersonnageBoardUI to CardUI--><g id="link_PersonnageBoardUI_CardUI"><path codeLine="77" d="M867.0935,588.7085 C833.0915,607.0975 796.3617,626.962 763.2927,644.846 " fill="none" id="PersonnageBoardUI-backto-CardUI" style="stroke:#181818;stroke-width:1.0;"/><polygon fill="#181818" points="877.6487,583,870.4682,582.3358,867.0935,588.7085,874.2739,589.3727,877.6487,583" style="stroke:#181818;stroke-width:1.0;"/><text fill="#000000" font-family="sans-serif" font-size="13" lengthAdjust="spacing" textLength="7" x="768.0902" y="632.112">*</text></g><!--reverse link PlayerCardUI to CardUI--><g id="link_PlayerCardUI_CardUI"><path codeLine="79" d="M708.713,594.7272 C712.544,612.3852 715.2687,624.941 719.1177,642.678 " fill="none" id="PlayerCardUI-backto-CardUI" style="stroke:#181818;stroke-width:1.0;"/><polygon fill="#181818" points="706.1687,583,703.5318,589.7117,708.713,594.7272,711.3499,588.0155,706.1687,583" style="stroke:#181818;stroke-width:1.0;"/><text fill="#000000" font-family="sans-serif" font-size="13" lengthAdjust="spacing" textLength="7" x="710.0312" y="632.0045">*</text></g><!--reverse link PlayerGemsUI to GemmesUI--><g id="link_PlayerGemsUI_GemmesUI"><path codeLine="81" d="M413.8077,591.9746 C453.2407,633.1396 526.4627,709.575 565.8767,750.72 " fill="none" id="PlayerGemsUI-backto-GemmesUI" style="stroke:#181818;stroke-width:1.0;"/><polygon fill="#181818" points="405.5067,583.309,406.7687,590.4088,413.8077,591.9746,412.5458,584.8748,405.5067,583.309" style="stroke:#181818;stroke-width:1.0;"/><text fill="#000000" font-family="sans-serif" font-size="13" lengthAdjust="spacing" textLength="8" x="551.4658" y="740.0567">7</text></g><!--reverse link PlayerPoints to CardUI--><g id="link_PlayerPoints_CardUI"><path codeLine="83" d="M592.4555,589.2867 C605.1455,596.9457 609.1077,599.283 622.1777,607 C642.7887,619.169 665.8647,632.539 684.8487,643.47 " fill="none" id="PlayerPoints-backto-CardUI" style="stroke:#181818;stroke-width:1.0;"/><polygon fill="#181818" points="582.1817,583.086,585.2517,589.611,592.4555,589.2867,589.3855,582.7618,582.1817,583.086" style="stroke:#181818;stroke-width:1.0;"/><text fill="#000000" font-family="sans-serif" font-size="13" lengthAdjust="spacing" textLength="8" x="669.1307" y="635.0215">3</text></g><!--reverse link PlayerPoints to Player--><g id="link_PlayerPoints_Player"><path codeLine="84" d="M515.8199,592.608 C502.9749,608.356 494.9077,620.932 486.1777,643 C452.0317,729.32 447.3107,841.732 446.9737,889.6828 " fill="none" id="PlayerPoints-backto-Player" style="stroke:#181818;stroke-width:1.0;"/><polygon fill="#181818" points="523.4047,583.309,516.5126,585.4302,515.8199,592.608,522.712,590.4868,523.4047,583.309" style="stroke:#181818;stroke-width:1.0;"/><text fill="#000000" font-family="sans-serif" font-size="13" lengthAdjust="spacing" textLength="8" x="437.949" y="879.0104">1</text></g><!--reverse link PlayerUI to Player--><g id="link_PlayerUI_Player"><path codeLine="86" d="M487.3396,424.5353 C386.1176,431.1903 158.9075,448.866 135.1777,476 C6,623.712 300.2087,823.972 408.8717,890.4917 " fill="none" id="PlayerUI-backto-Player" style="stroke:#181818;stroke-width:1.0;"/><polygon fill="none" points="499.3137,423.748,493.0642,420.1502,487.3396,424.5353,493.589,428.133,499.3137,423.748" style="stroke:#181818;stroke-width:1.0;"/><text fill="#000000" font-family="sans-serif" font-size="13" lengthAdjust="spacing" textLength="8" x="393.0715" y="881.8537">1</text></g><!--reverse link PlayerUI to PlayerPoints--><g id="link_PlayerUI_PlayerPoints"><path codeLine="87" d="M544.1777,456.24 C544.1777,481.433 544.1777,509.409 544.1777,534.646 " fill="none" id="PlayerUI-backto-PlayerPoints" style="stroke:#181818;stroke-width:1.0;"/><polygon fill="#181818" points="544.1777,444.24,540.1777,450.24,544.1777,456.24,548.1777,450.24,544.1777,444.24" style="stroke:#181818;stroke-width:1.0;"/><text fill="#000000" font-family="sans-serif" font-size="13" lengthAdjust="spacing" textLength="8" x="535.2027" y="523.9647">1</text></g><!--reverse link PlayerUI to PlayerNameUI--><g id="link_PlayerUI_PlayerNameUI"><path codeLine="88" d="M487.2898,424.7161 C436.2258,429.3481 363.6947,441.007 300.1777,476 C273.7267,490.572 250.1207,516.22 235.1067,534.961 " fill="none" id="PlayerUI-backto-PlayerNameUI" style="stroke:#181818;stroke-width:1.0;"/><polygon fill="#181818" points="499.2407,423.632,492.9039,420.1904,487.2898,424.7161,493.6266,428.1577,499.2407,423.632" style="stroke:#181818;stroke-width:1.0;"/><text fill="#000000" font-family="sans-serif" font-size="13" lengthAdjust="spacing" textLength="8" x="230.4198" y="523.963">1</text></g><!--reverse link PlayerUI to PlayerCardUI--><g id="link_PlayerUI_PlayerCardUI"><path codeLine="89" d="M571.4907,452.9103 C579.6107,461.4853 581.4347,461.881 592.1777,468 C604.1687,474.829 610.2877,468.996 622.1777,476 C647.5567,490.949 670.1547,516.275 684.6117,534.834 " fill="none" id="PlayerUI-backto-PlayerCardUI" style="stroke:#181818;stroke-width:1.0;"/><polygon fill="#181818" points="563.2397,444.197,564.4607,451.304,571.4907,452.9103,570.2696,445.8033,563.2397,444.197" style="stroke:#181818;stroke-width:1.0;"/><text fill="#000000" font-family="sans-serif" font-size="13" lengthAdjust="spacing" textLength="8" x="671.3417" y="523.8035">1</text></g><!--reverse link PlayerUI to PlayerGemsUI--><g id="link_PlayerUI_PlayerGemsUI"><path codeLine="90" d="M498.818,450.9785 C485.153,460.3755 479.5207,464.835 466.1777,476 C444.1177,494.458 420.9937,517.669 404.7727,534.681 " fill="none" id="PlayerUI-backto-PlayerGemsUI" style="stroke:#181818;stroke-width:1.0;"/><polygon fill="#181818" points="508.7057,444.179,501.4953,444.2828,498.818,450.9785,506.0283,450.8746,508.7057,444.179" style="stroke:#181818;stroke-width:1.0;"/><text fill="#000000" font-family="sans-serif" font-size="13" lengthAdjust="spacing" textLength="8" x="401.0615" y="524.0082">1</text></g><!--link PlayerUI to BackgroundWidgetUI--><g id="link_PlayerUI_BackgroundWidgetUI"><path codeLine="91" d="M555.0977,395.67 C565.7007,375.921 583.9727,350.412 609.6777,344.5 C644.1927,336.561 1850.1577,336.561 1884.6777,344.5 C1921.3877,352.943 1943.3956,365.9985 1967.2056,384.7465 " fill="none" id="PlayerUI-to-BackgroundWidgetUI" style="stroke:#181818;stroke-width:1.0;"/><polygon fill="none" points="1981.3477,395.882,1970.9174,380.0324,1963.4937,389.4605,1981.3477,395.882" style="stroke:#181818;stroke-width:1.0;"/></g><!--reverse link Image to Board--><g id="link_Image_Board"><path codeLine="103" d="M711.4314,131.3781 C907.3534,133.2091 1787.6577,143.733 1902.1777,186 C2015.3577,227.774 2063.2577,244.581 2116.1777,353 C2138.5977,398.932 2152.1177,431.659 2116.1777,468 C2102.0977,482.241 1409.6077,462.106 1395.1777,476 C1391.9952,479.065 1389.5247,482.5901 1387.6405,486.419 C1387.1695,487.3762 1386.7351,488.3524 1386.3353,489.3452 C1386.1355,489.8415 1385.9443,490.342 1385.7615,490.8464 C1385.6701,491.0985 1385.5808,491.3517 1385.4936,491.6057 C1385.45,491.7327 1385.4069,491.86 1385.3644,491.9875 " fill="none" id="Image-backto-Board" style="stroke:#181818;stroke-width:1.0;stroke-dasharray:7.0,7.0;"/><polygon fill="#181818" points="705.4317,131.322,714.3939,135.4059,710.4315,131.3687,714.4687,127.4063,705.4317,131.322" style="stroke:#181818;stroke-width:1.0;"/></g><!--reverse link Image to PLayer--><g id="link_Image_PLayer"><path codeLine="104" d="M667.1777,160.163 C667.1777,194.726 667.1777,253.415 667.1777,287.926 " fill="none" id="Image-backto-PLayer" style="stroke:#181818;stroke-width:1.0;stroke-dasharray:7.0,7.0;"/><polygon fill="#181818" points="667.1777,154.163,663.1777,163.163,667.1777,159.163,671.1777,163.163,667.1777,154.163" style="stroke:#181818;stroke-width:1.0;"/></g><!--reverse link Image to UI--><g id="link_Image_UI"><path codeLine="105" d="M622.9872,132.1621 C503.5562,135.6291 148.9698,148.931 113.1777,186 C94.1456,205.711 91.9102,236.3 94.5478,262.284 C94.8775,265.532 95.2833,268.708 95.742,271.7819 C95.9714,273.3188 96.2139,274.8302 96.4668,276.3123 C96.5932,277.0533 96.7222,277.787 96.8534,278.5129 C96.919,278.8758 96.9852,279.2368 97.0519,279.5958 C97.0852,279.7753 97.1187,279.9543 97.1522,280.1327 " fill="none" id="Image-backto-UI" style="stroke:#181818;stroke-width:1.0;stroke-dasharray:7.0,7.0;"/><polygon fill="#181818" points="628.9847,131.988,619.8724,128.2508,623.9868,132.1331,620.1046,136.2475,628.9847,131.988" style="stroke:#181818;stroke-width:1.0;"/></g><!--SRC=[XLNHQjim57tNLmY_308nMySOZ59OiYq4sisiXBuCXcOhhfWj6KaU6sa-gD_H7vjio-gLPRbv2lSSNHtTU-vrG_BVfAGusP6QNekIvGa-eJD2pGWSDAjK5yJcbrT4ARolE-HqxdXSQ4FwYBKK3IueBfuU6yeBmdEgS2DQYRLeDIR78yllgSGVy0_-ZMD9AsR8WkUOj7-nlKtXt4Iev4-FvagYS9Vz9-kkGyz_SReU920eS-zht1YWbABbnHqhIgeFUtp2Pq3O4ba4mHsjQwg2y9uVXQo9PeBVKANCXG4ba-mFgsX9Ds8kiOC3v9Rnig9QyDkcCeKJybDBAySXlvIM9DT0z5PmJHYdSWToJNZ3Em9cJtKbwvMELGELwyAJwapGMMGhQlC2JUECZ4ebE2Vb0kSxDLcOd1AcshEA_ACo53_4e-e7s5H7BS1VpIWim9bWNAiel23wXl8sb6owT6JMNLchxZUjDcwO5V25yOn8RIOdnBhatjtcTbi7iLxZP9LWD-Df1o3atDuJta32PzxM0unGOEsLpGTCZT2yZrSsyyGSI-oBn5NoXQHJOI_GvwOuSYHDh_eZhk2cbh4sNQOfu2tIXXuDVV66y_B1Q0I35s50TySeqnbRJ3LuUNH2H9B94SFXF9bj35T7N_NNQVekiQlMmW2wCDZemQx0_luOs-RU4S7zZM7i6coPqQ-Z3cz9p8DsHVJWUwZIsm4z_DQT3J5lfWPuJ34xTfRY6Cxfi5iHT5XRCTIJ6A2sWmvTFrpDV44HUZLy-ZilZ_K68LSb4Di6B3i48E8f3E9MMn2trO1ni8z0U68GWCmEFth63_kqF-M7ikk-IJ3s7m00]--></g></svg>